<?xml version="1.0" encoding="UTF-8" standalone="no"?>
<!-- Created with Inkscape (http://www.inkscape.org/) -->

<svg
   xmlns:dc="http://purl.org/dc/elements/1.1/"
   xmlns:cc="http://creativecommons.org/ns#"
   xmlns:rdf="http://www.w3.org/1999/02/22-rdf-syntax-ns#"
   xmlns:svg="http://www.w3.org/2000/svg"
   xmlns="http://www.w3.org/2000/svg"
   xmlns:sodipodi="http://sodipodi.sourceforge.net/DTD/sodipodi-0.dtd"
   xmlns:inkscape="http://www.inkscape.org/namespaces/inkscape"
   width="268.10696mm"
   height="101.14892mm"
   viewBox="0 0 268.10696 101.14892"
   version="1.1"
   id="svg8"
   inkscape:version="0.92.1 r15371"
   sodipodi:docname="clock_shift.svg">
  <defs
     id="defs2">
    <clipPath
       id="clipPath4503"
       clipPathUnits="userSpaceOnUse">
      <path
         inkscape:connector-curvature="0"
         id="path4501"
         d="M 0,0 V 2930 H 8955 V 0 Z" />
    </clipPath>
    <clipPath
       clipPathUnits="userSpaceOnUse"
       id="clipPath5017">
      <rect
         style="opacity:0.51999996;fill:#008000;fill-opacity:1;fill-rule:nonzero;stroke:none;stroke-width:7.08661461;stroke-linecap:round;stroke-linejoin:round;stroke-miterlimit:4;stroke-dasharray:none;stroke-dashoffset:0;stroke-opacity:1;paint-order:markers fill stroke"
         id="rect5019"
         width="759.98822"
         height="286.72134"
         x="55.683281"
         y="-288.1297"
         transform="scale(1,-1)" />
    </clipPath>
  </defs>
  <sodipodi:namedview
     id="base"
     pagecolor="#ffffff"
     bordercolor="#666666"
     borderopacity="1.0"
     inkscape:pageopacity="0.0"
     inkscape:pageshadow="2"
     inkscape:zoom="0.7"
     inkscape:cx="703.29761"
     inkscape:cy="81.086092"
     inkscape:document-units="mm"
     inkscape:current-layer="layer1"
     showgrid="false"
     inkscape:window-width="1600"
     inkscape:window-height="877"
     inkscape:window-x="-8"
     inkscape:window-y="-8"
     inkscape:window-maximized="1"
     fit-margin-top="0"
     fit-margin-left="0"
     fit-margin-right="0"
     fit-margin-bottom="0" />
  <metadata
     id="metadata5">
    <rdf:RDF>
      <cc:Work
         rdf:about="">
        <dc:format>image/svg+xml</dc:format>
        <dc:type
           rdf:resource="http://purl.org/dc/dcmitype/StillImage" />
        <dc:title></dc:title>
      </cc:Work>
    </rdf:RDF>
  </metadata>
  <g
     inkscape:label="Layer 1"
     inkscape:groupmode="layer"
     id="layer1"
     transform="translate(16.604089,-9.7112371)">
    <g
       transform="matrix(0.35277777,0,0,-0.35277777,-36.247913,111.35699)"
       inkscape:label="ink_ext_XXXXXX"
       id="g4493"
       clip-path="url(#clipPath5017)">
      <g
         transform="scale(0.1)"
         id="g4495">
        <g
           id="g4497">
          <g
             clip-path="url(#clipPath4503)"
             id="g4499">
            <path
               inkscape:connector-curvature="0"
               id="path4505"
               style="fill:#ffffff;fill-opacity:1;fill-rule:nonzero;stroke:none"
               d="M 0,0 H 8955 V 2932.5 H 0 Z" />
          </g>
        </g>
        <path
           inkscape:connector-curvature="0"
           id="path4507"
           style="fill:#ffffff;fill-opacity:1;fill-rule:nonzero;stroke:none"
           d="M 0,0 H 8955 V 2932.5 H 0 Z" />
        <path
           inkscape:connector-curvature="0"
           id="path4509"
           style="fill:#ffffff;fill-opacity:1;fill-rule:nonzero;stroke:none"
           d="m 1162.5,1785 h 6945 v 930 h -6945 z" />
        <path
           inkscape:connector-curvature="0"
           id="path4511"
           style="fill:none;stroke:#dfdfdf;stroke-width:5.00250006;stroke-linecap:butt;stroke-linejoin:round;stroke-miterlimit:10;stroke-dasharray:none;stroke-opacity:1"
           d="m 1559.18,1785 v 930" />
        <path
           inkscape:connector-curvature="0"
           id="path4513"
           style="fill:none;stroke:#dfdfdf;stroke-width:5.00250006;stroke-linecap:butt;stroke-linejoin:round;stroke-miterlimit:10;stroke-dasharray:none;stroke-opacity:1"
           d="m 2458.67,1785 v 930" />
        <path
           inkscape:connector-curvature="0"
           id="path4515"
           style="fill:none;stroke:#dfdfdf;stroke-width:5.00250006;stroke-linecap:butt;stroke-linejoin:round;stroke-miterlimit:10;stroke-dasharray:none;stroke-opacity:1"
           d="m 3358.17,1785 v 930" />
        <path
           inkscape:connector-curvature="0"
           id="path4517"
           style="fill:none;stroke:#dfdfdf;stroke-width:5.00250006;stroke-linecap:butt;stroke-linejoin:round;stroke-miterlimit:10;stroke-dasharray:none;stroke-opacity:1"
           d="m 4257.66,1785 v 930" />
        <path
           inkscape:connector-curvature="0"
           id="path4519"
           style="fill:none;stroke:#dfdfdf;stroke-width:5.00250006;stroke-linecap:butt;stroke-linejoin:round;stroke-miterlimit:10;stroke-dasharray:none;stroke-opacity:1"
           d="m 5157.16,1785 v 930" />
        <path
           inkscape:connector-curvature="0"
           id="path4521"
           style="fill:none;stroke:#dfdfdf;stroke-width:5.00250006;stroke-linecap:butt;stroke-linejoin:round;stroke-miterlimit:10;stroke-dasharray:none;stroke-opacity:1"
           d="m 6056.66,1785 v 930" />
        <path
           inkscape:connector-curvature="0"
           id="path4523"
           style="fill:none;stroke:#dfdfdf;stroke-width:5.00250006;stroke-linecap:butt;stroke-linejoin:round;stroke-miterlimit:10;stroke-dasharray:none;stroke-opacity:1"
           d="m 6956.14,1785 v 930" />
        <path
           inkscape:connector-curvature="0"
           id="path4525"
           style="fill:none;stroke:#dfdfdf;stroke-width:5.00250006;stroke-linecap:butt;stroke-linejoin:round;stroke-miterlimit:10;stroke-dasharray:none;stroke-opacity:1"
           d="m 7855.64,1785 v 930" />
        <path
           inkscape:connector-curvature="0"
           id="path4527"
           style="fill:none;stroke:#dfdfdf;stroke-width:5.00250006;stroke-linecap:butt;stroke-linejoin:round;stroke-miterlimit:10;stroke-dasharray:none;stroke-opacity:1"
           d="m 8107.5,1785 h -6945" />
        <path
           inkscape:connector-curvature="0"
           id="path4529"
           style="fill:none;stroke:#dfdfdf;stroke-width:5.00250006;stroke-linecap:butt;stroke-linejoin:round;stroke-miterlimit:10;stroke-dasharray:none;stroke-opacity:1"
           d="m 8107.5,2017.5 h -6945" />
        <path
           inkscape:connector-curvature="0"
           id="path4531"
           style="fill:none;stroke:#dfdfdf;stroke-width:5.00250006;stroke-linecap:butt;stroke-linejoin:round;stroke-miterlimit:10;stroke-dasharray:none;stroke-opacity:1"
           d="m 8107.5,2250 h -6945" />
        <path
           inkscape:connector-curvature="0"
           id="path4533"
           style="fill:none;stroke:#dfdfdf;stroke-width:5.00250006;stroke-linecap:butt;stroke-linejoin:round;stroke-miterlimit:10;stroke-dasharray:none;stroke-opacity:1"
           d="m 8107.5,2482.5 h -6945" />
        <path
           inkscape:connector-curvature="0"
           id="path4535"
           style="fill:none;stroke:#dfdfdf;stroke-width:5.00250006;stroke-linecap:butt;stroke-linejoin:round;stroke-miterlimit:10;stroke-dasharray:none;stroke-opacity:1"
           d="m 8107.5,2715 h -6945" />
        <path
           inkscape:connector-curvature="0"
           id="path4537"
           style="fill:none;stroke:#262626;stroke-width:5.00250006;stroke-linecap:square;stroke-linejoin:round;stroke-miterlimit:10;stroke-dasharray:none;stroke-opacity:1"
           d="m 1162.5,1785 h 6945" />
        <path
           inkscape:connector-curvature="0"
           id="path4539"
           style="fill:none;stroke:#262626;stroke-width:5.00250006;stroke-linecap:square;stroke-linejoin:round;stroke-miterlimit:10;stroke-dasharray:none;stroke-opacity:1"
           d="m 1162.5,2715 h 6945" />
        <path
           inkscape:connector-curvature="0"
           id="path4541"
           style="fill:none;stroke:#262626;stroke-width:5.00250006;stroke-linecap:square;stroke-linejoin:round;stroke-miterlimit:10;stroke-dasharray:none;stroke-opacity:1"
           d="m 1559.18,1785 v 69.45" />
        <path
           inkscape:connector-curvature="0"
           id="path4543"
           style="fill:none;stroke:#262626;stroke-width:5.00250006;stroke-linecap:square;stroke-linejoin:round;stroke-miterlimit:10;stroke-dasharray:none;stroke-opacity:1"
           d="m 2458.67,1785 v 69.45" />
        <path
           inkscape:connector-curvature="0"
           id="path4545"
           style="fill:none;stroke:#262626;stroke-width:5.00250006;stroke-linecap:square;stroke-linejoin:round;stroke-miterlimit:10;stroke-dasharray:none;stroke-opacity:1"
           d="m 3358.17,1785 v 69.45" />
        <path
           inkscape:connector-curvature="0"
           id="path4547"
           style="fill:none;stroke:#262626;stroke-width:5.00250006;stroke-linecap:square;stroke-linejoin:round;stroke-miterlimit:10;stroke-dasharray:none;stroke-opacity:1"
           d="m 4257.66,1785 v 69.45" />
        <path
           inkscape:connector-curvature="0"
           id="path4549"
           style="fill:none;stroke:#262626;stroke-width:5.00250006;stroke-linecap:square;stroke-linejoin:round;stroke-miterlimit:10;stroke-dasharray:none;stroke-opacity:1"
           d="m 5157.16,1785 v 69.45" />
        <path
           inkscape:connector-curvature="0"
           id="path4551"
           style="fill:none;stroke:#262626;stroke-width:5.00250006;stroke-linecap:square;stroke-linejoin:round;stroke-miterlimit:10;stroke-dasharray:none;stroke-opacity:1"
           d="m 6056.66,1785 v 69.45" />
        <path
           inkscape:connector-curvature="0"
           id="path4553"
           style="fill:none;stroke:#262626;stroke-width:5.00250006;stroke-linecap:square;stroke-linejoin:round;stroke-miterlimit:10;stroke-dasharray:none;stroke-opacity:1"
           d="m 6956.14,1785 v 69.45" />
        <path
           inkscape:connector-curvature="0"
           id="path4555"
           style="fill:none;stroke:#262626;stroke-width:5.00250006;stroke-linecap:square;stroke-linejoin:round;stroke-miterlimit:10;stroke-dasharray:none;stroke-opacity:1"
           d="m 7855.64,1785 v 69.45" />
        <path
           inkscape:connector-curvature="0"
           id="path4557"
           style="fill:none;stroke:#262626;stroke-width:5.00250006;stroke-linecap:square;stroke-linejoin:round;stroke-miterlimit:10;stroke-dasharray:none;stroke-opacity:1"
           d="m 1559.18,2715 v -69.45" />
        <path
           inkscape:connector-curvature="0"
           id="path4559"
           style="fill:none;stroke:#262626;stroke-width:5.00250006;stroke-linecap:square;stroke-linejoin:round;stroke-miterlimit:10;stroke-dasharray:none;stroke-opacity:1"
           d="m 2458.67,2715 v -69.45" />
        <path
           inkscape:connector-curvature="0"
           id="path4561"
           style="fill:none;stroke:#262626;stroke-width:5.00250006;stroke-linecap:square;stroke-linejoin:round;stroke-miterlimit:10;stroke-dasharray:none;stroke-opacity:1"
           d="m 3358.17,2715 v -69.45" />
        <path
           inkscape:connector-curvature="0"
           id="path4563"
           style="fill:none;stroke:#262626;stroke-width:5.00250006;stroke-linecap:square;stroke-linejoin:round;stroke-miterlimit:10;stroke-dasharray:none;stroke-opacity:1"
           d="m 4257.66,2715 v -69.45" />
        <path
           inkscape:connector-curvature="0"
           id="path4565"
           style="fill:none;stroke:#262626;stroke-width:5.00250006;stroke-linecap:square;stroke-linejoin:round;stroke-miterlimit:10;stroke-dasharray:none;stroke-opacity:1"
           d="m 5157.16,2715 v -69.45" />
        <path
           inkscape:connector-curvature="0"
           id="path4567"
           style="fill:none;stroke:#262626;stroke-width:5.00250006;stroke-linecap:square;stroke-linejoin:round;stroke-miterlimit:10;stroke-dasharray:none;stroke-opacity:1"
           d="m 6056.66,2715 v -69.45" />
        <path
           inkscape:connector-curvature="0"
           id="path4569"
           style="fill:none;stroke:#262626;stroke-width:5.00250006;stroke-linecap:square;stroke-linejoin:round;stroke-miterlimit:10;stroke-dasharray:none;stroke-opacity:1"
           d="m 6956.14,2715 v -69.45" />
        <path
           inkscape:connector-curvature="0"
           id="path4571"
           style="fill:none;stroke:#262626;stroke-width:5.00250006;stroke-linecap:square;stroke-linejoin:round;stroke-miterlimit:10;stroke-dasharray:none;stroke-opacity:1"
           d="m 7855.64,2715 v -69.45" />
        <g
           transform="scale(10)"
           id="g4573">
          <text
             id="text4577"
             style="font-variant:normal;font-weight:normal;font-size:9.99975014px;font-family:Helvetica;-inkscape-font-specification:Helvetica;writing-mode:lr-tb;fill:#262626;fill-opacity:1;fill-rule:nonzero;stroke:none"
             transform="matrix(1,0,0,-1,152.918,164)">
            <tspan
               id="tspan4575"
               sodipodi:role="line"
               y="0"
               x="0 87.324615 92.884476 177.27426 182.83412 267.22351 272.78339 357.17316 362.73303 444.1228 449.68265 455.24252 534.07245 539.63232 545.1922 624.02173 629.58154 635.14142">020406080100120140</tspan>
          </text>
          <text
             id="text4581"
             style="font-variant:normal;font-weight:normal;font-size:11.00020027px;font-family:Helvetica;-inkscape-font-specification:Helvetica;writing-mode:lr-tb;fill:#262626;fill-opacity:1;fill-rule:nonzero;stroke:none"
             transform="matrix(1,0,0,-1,441,149.25)">
            <tspan
               id="tspan4579"
               sodipodi:role="line"
               y="0"
               x="0 3.0580556 5.5001001 14.663266 20.779377 23.837433">time (</tspan>
          </text>
        </g>
        <path
           inkscape:connector-curvature="0"
           id="path4583"
           style="fill:#262626;fill-opacity:1;fill-rule:nonzero;stroke:none"
           d="m 4690.66,1471.4 c 0,0.4 0.05,0.67 0.13,0.83 l 16.52,66.44 c 0.31,1.01 0.89,1.85 1.75,2.52 0.86,0.67 1.84,1 2.94,1 0.93,0 1.73,-0.28 2.39,-0.82 0.67,-0.55 1,-1.29 1,-2.23 0,-0.23 0,-0.43 0,-0.58 0,-0.16 -0.04,-0.28 -0.12,-0.36 l -6.67,-26.36 c -0.71,-3.13 -1.06,-5.82 -1.06,-8.09 0,-2.81 0.67,-5.09 2,-6.86 1.32,-1.75 3.31,-2.64 5.96,-2.64 5.48,0 10.28,3.41 14.42,10.2 0,0.08 0.02,0.14 0.06,0.18 0.04,0.04 0.06,0.1 0.06,0.18 l 8.09,32.57 c 0.23,1.02 0.82,1.88 1.75,2.58 0.94,0.7 1.96,1.06 3.05,1.06 0.86,0 1.62,-0.29 2.28,-0.88 0.67,-0.59 1,-1.35 1,-2.29 0,-0.47 -0.04,-0.78 -0.11,-0.94 l -8.1,-32.34 c -0.54,-2.19 -0.81,-4.02 -0.81,-5.51 0,-3.2 1.09,-4.81 3.28,-4.81 2.34,0 4.12,1.45 5.33,4.35 1.21,2.89 2.25,6.36 3.11,10.42 0.16,0.47 0.47,0.71 0.94,0.71 h 1.28 c 0.32,0 0.57,-0.12 0.76,-0.35 0.2,-0.24 0.3,-0.51 0.3,-0.82 -1.33,-5.24 -2.78,-9.44 -4.34,-12.6 -1.56,-3.17 -4.1,-4.75 -7.62,-4.75 -2.42,0 -4.6,0.72 -6.56,2.17 -1.95,1.44 -3.2,3.38 -3.75,5.8 -1.87,-2.34 -4.06,-4.26 -6.56,-5.74 -2.5,-1.49 -5.16,-2.23 -7.97,-2.23 -4.69,0 -8.36,1.09 -11.01,3.29 l -5.75,-22.75 c -0.23,-1.01 -0.77,-1.85 -1.63,-2.52 -0.86,-0.66 -1.84,-0.98 -2.94,-0.98 -0.93,0 -1.73,0.27 -2.4,0.81 -0.66,0.55 -1,1.33 -1,2.34" />
        <g
           transform="scale(10)"
           id="g4585">
          <text
             id="text4589"
             style="font-variant:normal;font-weight:normal;font-size:11.00020027px;font-family:Helvetica;-inkscape-font-specification:Helvetica;writing-mode:lr-tb;fill:#262626;fill-opacity:1;fill-rule:nonzero;stroke:none"
             transform="matrix(1,0,0,-1,475.5,149.25)">
            <tspan
               id="tspan4587"
               sodipodi:role="line"
               y="0"
               x="0 5.5001001">s)</tspan>
          </text>
        </g>
        <path
           inkscape:connector-curvature="0"
           id="path4591"
           style="fill:none;stroke:#262626;stroke-width:5.00250006;stroke-linecap:square;stroke-linejoin:round;stroke-miterlimit:10;stroke-dasharray:none;stroke-opacity:1"
           d="m 1162.5,1785 v 930" />
        <path
           inkscape:connector-curvature="0"
           id="path4593"
           style="fill:none;stroke:#262626;stroke-width:5.00250006;stroke-linecap:square;stroke-linejoin:round;stroke-miterlimit:10;stroke-dasharray:none;stroke-opacity:1"
           d="m 8107.5,1785 v 930" />
        <path
           inkscape:connector-curvature="0"
           id="path4595"
           style="fill:none;stroke:#262626;stroke-width:5.00250006;stroke-linecap:square;stroke-linejoin:round;stroke-miterlimit:10;stroke-dasharray:none;stroke-opacity:1"
           d="m 1162.5,1785 h 69.45" />
        <path
           inkscape:connector-curvature="0"
           id="path4597"
           style="fill:none;stroke:#262626;stroke-width:5.00250006;stroke-linecap:square;stroke-linejoin:round;stroke-miterlimit:10;stroke-dasharray:none;stroke-opacity:1"
           d="m 1162.5,2017.5 h 69.45" />
        <path
           inkscape:connector-curvature="0"
           id="path4599"
           style="fill:none;stroke:#262626;stroke-width:5.00250006;stroke-linecap:square;stroke-linejoin:round;stroke-miterlimit:10;stroke-dasharray:none;stroke-opacity:1"
           d="m 1162.5,2250 h 69.45" />
        <path
           inkscape:connector-curvature="0"
           id="path4601"
           style="fill:none;stroke:#262626;stroke-width:5.00250006;stroke-linecap:square;stroke-linejoin:round;stroke-miterlimit:10;stroke-dasharray:none;stroke-opacity:1"
           d="m 1162.5,2482.5 h 69.45" />
        <path
           inkscape:connector-curvature="0"
           id="path4603"
           style="fill:none;stroke:#262626;stroke-width:5.00250006;stroke-linecap:square;stroke-linejoin:round;stroke-miterlimit:10;stroke-dasharray:none;stroke-opacity:1"
           d="m 1162.5,2715 h 69.45" />
        <path
           inkscape:connector-curvature="0"
           id="path4605"
           style="fill:none;stroke:#262626;stroke-width:5.00250006;stroke-linecap:square;stroke-linejoin:round;stroke-miterlimit:10;stroke-dasharray:none;stroke-opacity:1"
           d="m 8107.5,1785 h -69.45" />
        <path
           inkscape:connector-curvature="0"
           id="path4607"
           style="fill:none;stroke:#262626;stroke-width:5.00250006;stroke-linecap:square;stroke-linejoin:round;stroke-miterlimit:10;stroke-dasharray:none;stroke-opacity:1"
           d="m 8107.5,2017.5 h -69.45" />
        <path
           inkscape:connector-curvature="0"
           id="path4609"
           style="fill:none;stroke:#262626;stroke-width:5.00250006;stroke-linecap:square;stroke-linejoin:round;stroke-miterlimit:10;stroke-dasharray:none;stroke-opacity:1"
           d="m 8107.5,2250 h -69.45" />
        <path
           inkscape:connector-curvature="0"
           id="path4611"
           style="fill:none;stroke:#262626;stroke-width:5.00250006;stroke-linecap:square;stroke-linejoin:round;stroke-miterlimit:10;stroke-dasharray:none;stroke-opacity:1"
           d="m 8107.5,2482.5 h -69.45" />
        <path
           inkscape:connector-curvature="0"
           id="path4613"
           style="fill:none;stroke:#262626;stroke-width:5.00250006;stroke-linecap:square;stroke-linejoin:round;stroke-miterlimit:10;stroke-dasharray:none;stroke-opacity:1"
           d="m 8107.5,2715 h -69.45" />
        <g
           transform="scale(10)"
           id="g4615">
          <text
             id="text4627"
             style="font-variant:normal;font-weight:normal;font-size:9.99975014px;font-family:Helvetica;-inkscape-font-specification:Helvetica;writing-mode:lr-tb;fill:#262626;fill-opacity:1;fill-rule:nonzero;stroke:none"
             transform="matrix(1,0,0,-1,103.25,174.375)">
            <tspan
               id="tspan4617"
               sodipodi:role="line"
               y="0"
               x="0 3.3299167">-2</tspan>
            <tspan
               id="tspan4619"
               y="-23.25"
               x="3">0</tspan>
            <tspan
               id="tspan4621"
               y="-46.5"
               x="3">2</tspan>
            <tspan
               id="tspan4623"
               y="-69.75"
               x="3">4</tspan>
            <tspan
               id="tspan4625"
               y="-93"
               x="3">6</tspan>
          </text>
          <text
             id="text4633"
             style="font-variant:normal;font-weight:normal;font-size:18px;font-family:Helvetica;-inkscape-font-specification:Helvetica;writing-mode:lr-tb;fill:#262626;fill-opacity:1;fill-rule:nonzero;stroke:none"
             transform="matrix(0,1,1,0,72.5,207.375)">
            <tspan
               id="tspan4629"
               sodipodi:role="line"
               y="0"
               x="0 10.008 20.016001 25.02">data</tspan>
            <tspan
               id="tspan4631"
               sodipodi:role="line"
               y="23.25"
               x="-26.25 -17.25 -7.2420001 -3.2460001 1.758 11.766 21.774 31.782 36.785999 42.779999 54.785999">voltage (V)</tspan>
          </text>
        </g>
        <path
           inkscape:connector-curvature="0"
           id="path4635"
           style="fill:none;stroke:#000000;stroke-width:5.00250006;stroke-linecap:butt;stroke-linejoin:round;stroke-miterlimit:10;stroke-dasharray:none;stroke-opacity:1"
           d="m 1387.37,2566.2 h 0.9 l 0.9,18.6 0.9,-18.6 0.9,9.3 0.9,-9.3 0.9,9.3 h 0.9 l 0.9,-9.3 h 0.9 l 0.89,9.3 h 2.71 l 0.89,-9.3 h 0.9 l 0.91,9.3 h 0.89 l 0.91,-9.3 h 1.79 l 0.91,9.3 h 2.69 l 0.9,-9.3 0.9,9.3 0.9,-9.3 0.9,9.3 0.9,-9.3 0.9,18.6 0.9,-18.6 h 0.9 l 0.9,9.3 h 0.9 l 0.9,9.3 h 0.9 l 0.9,-18.6 0.9,9.3 0.9,-9.3 h 1.79 l 0.9,9.3 0.9,-9.3 0.9,9.3 h 0.9 l 0.9,-9.3 h 1.8 l 0.9,9.3 0.9,9.3 h 0.9 l 0.9,-9.3 0.9,-9.3 0.9,9.3 0.89,-18.6 0.9,9.3 0.9,9.3 0.9,-9.3 0.9,18.6 0.9,-18.6 0.9,9.3 h 3.6 l 0.9,9.3 0.9,-18.6 h 0.9 l 0.9,9.3 h 0.9 l 0.89,-18.6 0.91,9.3 0.9,18.6 0.89,-18.6 0.91,9.3 h 0.89 l 0.91,-9.3 0.9,9.3 0.89,-9.3 0.91,9.3 h 1.8 l 0.9,-9.3 0.89,9.3 h 0.9 l 0.9,-9.3 h 2.7 l 0.9,9.3 h 0.9 l 0.9,9.3 0.9,-9.3 0.9,-18.6 0.9,18.6 h 2.7 l 0.89,-9.3 h 0.9 l 0.9,18.6 0.9,-18.6 0.9,9.3 0.9,-9.3 0.9,9.3 0.9,-9.3 h 0.9 l 0.9,9.3 0.9,-9.3 h 2.7 l 0.9,9.3 0.89,-9.3 0.9,9.3 h 0.9 l 0.9,-9.3 0.9,9.3 0.9,-9.3 0.9,9.3 0.9,-9.3 0.9,9.3 0.9,-9.3 h 0.9 l 0.9,9.3 0.9,-9.3 0.9,9.3 h 0.9 l 0.9,-9.3 0.89,9.3 h 0.9 l 0.91,-9.3 h 0.89 l 0.91,9.3 h 0.89 l 0.91,-9.3 0.9,9.3 0.89,-18.6 0.91,18.6 0.89,-9.3 0.9,-9.3 h 0.91 l 0.89,9.3 0.9,9.3 h 1.8 l 0.9,-9.3 0.9,-9.3 0.9,27.9 0.9,-18.6 h 1.8 l 0.9,9.3 0.9,-9.3 0.9,9.3 h 0.9 l 0.9,-9.3 0.9,9.3 h 0.89 l 0.9,-9.3 h 1.8 l 0.9,9.3 0.9,-9.3 h 1.8 l 0.9,9.3 h 0.9 l 0.9,-9.3 0.9,18.6 0.9,-18.6 0.9,9.3 h 0.9 l 0.89,-9.3 0.9,9.3 0.9,-9.3 h 0.9 l 0.9,9.3 0.9,-9.3 0.9,9.3 h 0.9 l 0.9,-9.3 h 0.9 l 0.9,9.3 0.9,-9.3 h 0.9 l 0.9,-18.6 0.9,-46.5 0.9,-83.7 0.89,-120.9 0.91,-111.6 0.89,-139.5 0.91,-46.5 0.9,18.6 0.89,37.2 0.91,-18.6 h 0.89 l 0.91,-9.3 0.9,9.3 h 4.49 l 0.9,-9.3 h 1.8 l 0.9,9.3 0.9,-9.3 0.9,9.3 0.9,-9.3 0.9,9.3 h 1.8 l 0.9,9.3 0.9,-9.3 0.9,-9.3 0.89,9.3 h 2.7 l 0.9,-9.3 0.9,9.3 h 1.8 l 0.9,-9.3 0.9,9.3 0.9,9.3 h 0.9 l 0.9,-9.3 h 5.39 l 0.9,-9.3 0.9,9.3 h 1.8 l 0.9,-9.3 0.9,9.3 h 1.8 l 0.9,-9.3 0.9,9.3 0.9,9.3 0.9,-9.3 h 2.69 l 0.91,9.3 0.9,-18.6 0.89,9.3 h 0.91 l 0.89,9.3 h 0.91 l 0.9,-9.3 h 2.69 l 0.91,-9.3 h 0.89 l 0.9,9.3 0.9,-9.3 0.9,9.3 h 0.9 l 0.9,-9.3 h 1.8 l 0.9,9.3 0.9,-9.3 h 0.9 l 0.9,9.3 0.9,-9.3 0.9,9.3 h 0.9 l 0.89,-9.3 h 0.9 l 0.9,9.3 0.9,-9.3 h 1.8 l 0.9,9.3 h 3.6 l 0.9,-9.3 0.9,9.3 0.9,-9.3 0.89,-9.3 0.9,18.6 h 0.9 l 0.9,9.3 0.9,-9.3 h 0.9 l 0.9,-9.3 0.9,9.3 h 0.9 l 0.9,-9.3 0.9,9.3 0.9,-9.3 0.9,9.3 0.9,-9.3 h 1.8 l 0.89,9.3 0.91,9.3 0.89,-9.3 h 0.9 l 0.91,-18.6 0.89,9.3 0.91,9.3 h 0.89 l 0.9,-9.3 h 0.91 l 0.89,9.3 h 0.91 l 0.89,-9.3 h 5.4 l 0.9,18.6 0.9,27.9 0.9,18.6 0.9,18.6 0.9,18.6 0.9,37.2 h 1.8 l 0.9,18.6 h 0.9 l 0.89,9.3 h 2.7 l 0.9,27.9 0.9,-18.6 0.9,9.3 0.9,9.3 h 1.8 l 0.9,9.3 h 1.8 l 0.9,9.3 h 1.79 l 0.9,9.3 h 0.9 l 0.9,9.3 0.9,9.3 0.9,-18.6 0.9,9.3 h 0.9 l 0.9,18.6 h 1.8 l 0.9,9.3 h 1.8 l 0.9,9.3 0.89,-9.3 0.91,9.3 h 1.79 l 0.91,9.3 0.89,-9.3 0.91,9.3 0.9,-9.3 0.89,18.6 h 4.5 l 0.91,9.3 h 1.79 l 0.9,9.3 h 3.6 l 0.9,9.3 h 1.8 l 0.9,9.3 h 0.9 l 0.9,-9.3 0.9,18.6 0.89,-9.3 0.9,9.3 0.9,-9.3 h 3.6 l 0.9,18.6 0.9,-9.3 h 2.7 l 0.9,18.6 0.9,-9.3 h 4.49 l 0.9,9.3 h 1.8 l 0.9,9.3 0.9,-9.3 h 4.5 l 0.9,9.3 0.89,-9.3 0.9,9.3 h 0.91 l 0.89,-9.3 0.91,9.3 0.89,9.3 0.91,-9.3 0.9,-9.3 h 0.89 l 0.91,9.3 0.89,-9.3 0.9,9.3 h 2.71 l 0.89,-9.3 0.9,9.3 0.9,-9.3 0.9,9.3 h 0.9 l 0.9,9.3 0.9,9.3 0.9,-18.6 0.9,9.3 h 0.9 l 0.9,-9.3 0.9,9.3 0.9,-9.3 0.9,9.3 h 1.79 l 0.9,-9.3 0.9,9.3 h 0.9 l 0.9,9.3 0.9,-9.3 0.9,9.3 h 7.2 l 0.89,-18.6 0.9,18.6 h 0.9 l 0.9,9.3 0.9,-9.3 h 0.9 l 0.9,-9.3 0.9,18.6 h 2.7 l 0.9,-9.3 0.9,9.3 0.9,-9.3 0.9,9.3 0.89,-9.3 h 0.91 l 0.89,9.3 0.91,-9.3 0.9,9.3 h 0.89 l 0.91,9.3 0.89,-18.6 0.91,9.3 0.9,-9.3 0.89,9.3 0.91,9.3 0.89,-9.3 h 3.6 l 0.9,9.3 h 1.8 l 0.9,-9.3 h 1.8 l 0.9,18.6 0.9,-18.6 0.9,9.3 h 0.9 l 0.9,9.3 h 0.9 l 0.89,-18.6 0.9,18.6 h 0.9 l 0.9,-9.3 h 0.9 l 0.9,9.3 h 7.2 l 0.9,9.3 0.89,-9.3 0.9,9.3 0.9,-9.3 0.9,9.3 0.9,-9.3 0.9,9.3 0.9,-9.3 0.9,9.3 h 0.9 l 0.9,9.3 0.9,-18.6 h 0.9 l 0.9,9.3 0.9,-9.3 0.9,18.6 h 1.8 l 0.89,-9.3 h 0.91 l 0.9,9.3 0.89,-9.3 h 1.8 l 0.91,9.3 h 0.9 l 0.89,-9.3 h 5.4 l 0.9,-9.3 0.9,18.6 h 0.9 l 0.9,-18.6 0.9,18.6 0.9,-9.3 h 0.9 l 0.9,9.3 0.9,-9.3 h 2.7 l 0.9,-9.3 0.89,18.6 h 1.8 l 0.9,-9.3 0.9,9.3 h 0.9 l 0.9,-9.3 0.9,9.3 0.9,-18.6 0.9,9.3 h 2.7 l 0.9,-18.6 0.89,-55.8 0.9,-74.4 0.9,-102.3 0.9,-120.9 0.9,-65.1 0.9,9.3 0.9,9.3 0.9,9.3 h 1.8 l 0.9,-9.3 h 1.8 l 0.9,9.3 h 0.9 l 0.89,-9.3 h 0.91 l 0.89,9.3 0.9,-9.3 h 1.8 l 0.91,9.3 h 0.89 l 0.9,-18.6 0.91,18.6 0.89,-18.6 0.91,18.6 h 0.89 l 0.9,-9.3 h 5.4 l 0.9,9.3 h 0.9 l 0.9,9.3 0.9,-9.3 0.9,-9.3 0.9,9.3 0.9,-9.3 0.9,9.3 h 0.9 l 0.9,-9.3 h 0.89 l 0.9,9.3 0.9,-9.3 0.9,9.3 h 0.9 l 0.9,-9.3 0.9,9.3 0.9,-9.3 h 0.9 l 0.9,18.6 0.9,-18.6 0.9,9.3 h 0.9 l 0.9,-9.3 h 2.69 l 0.9,9.3 0.9,-9.3 0.9,9.3 0.9,-18.6 0.9,9.3 h 0.9 l 0.9,9.3 0.9,-9.3 h 0.9 l 0.9,9.3 h 2.7 l 0.9,-9.3 0.9,9.3 0.89,-9.3 0.91,9.3 h 0.89 l 0.91,-9.3 h 1.79 l 0.91,9.3 0.89,-9.3 h 4.5 l 0.9,-9.3 0.9,9.3 0.9,9.3 h 3.6 l 0.9,-9.3 0.9,-9.3 h 0.9 l 0.9,9.3 h 0.9 l 0.9,9.3 0.9,-9.3 0.89,-9.3 0.9,9.3 h 2.7 l 0.9,-9.3 0.9,18.6 h 0.9 l 0.9,-9.3 0.9,9.3 0.9,-18.6 0.9,9.3 h 8.09 l 0.9,9.3 h 0.9 l 0.9,-9.3 h 1.8 l 0.9,9.3 0.9,-9.3 0.9,-9.3 0.9,18.6 h 0.89 l 0.91,-9.3 0.89,9.3 0.91,-9.3 0.89,-9.3 0.91,18.6 0.9,-9.3 h 2.69 l 0.91,9.3 h 0.9 l 0.89,-9.3 h 0.91 l 0.89,9.3 0.9,-18.6 h 0.9 l 0.9,9.3 h 0.9 l 0.9,9.3 0.9,-9.3 0.9,9.3 0.9,-9.3 0.9,9.3 0.9,-9.3 h 3.6 l 0.9,9.3 0.89,-27.9 0.9,18.6 0.9,-9.3 0.9,18.6 0.9,-9.3 h 0.9 l 0.9,9.3 0.9,-9.3 0.9,9.3 h 0.9 l 0.9,-9.3 h 2.7 l 0.89,-9.3 0.9,9.3 h 3.6 l 0.9,-9.3 0.9,9.3 h 1.8 l 0.9,-9.3 h 0.9 l 0.9,18.6 h 0.9 l 0.9,-9.3 h 1.8 l 0.89,-9.3 0.91,18.6 0.9,-18.6 h 0.89 l 0.91,9.3 h 1.8 l 0.9,-9.3 0.89,9.3 h 5.4 l 0.9,9.3 0.9,-9.3 0.9,9.3 0.9,-18.6 0.9,18.6 0.9,-9.3 0.9,-9.3 0.9,9.3 h 0.9 l 0.9,9.3 0.9,-9.3 0.9,9.3 0.9,-18.6 h 0.89 l 0.9,18.6 0.9,-9.3 0.9,-9.3 0.9,9.3 h 0.9 l 0.9,-9.3 0.9,9.3 0.9,-9.3 0.9,9.3 0.9,9.3 0.9,-9.3 0.9,-9.3 0.9,9.3 h 0.9 l 0.89,9.3 h 0.9 l 0.9,-9.3 h 1.8 l 0.9,18.6 0.9,-9.3 0.9,-9.3 h 0.9 l 0.9,9.3 0.9,-9.3 h 0.9 l 0.9,-18.6 0.9,18.6 0.9,9.3 0.9,-9.3 h 0.89 l 0.91,-9.3 0.9,9.3 0.89,9.3 0.91,-18.6 0.89,9.3 0.91,-9.3 h 0.9 l 0.89,18.6 0.91,-9.3 0.89,9.3 0.91,-9.3 h 2.69 l 0.9,9.3 0.9,-9.3 0.9,9.3 0.9,-9.3 h 2.7 l 0.9,9.3 h 0.9 l 0.9,-18.6 0.9,18.6 0.9,-9.3 h 2.69 l 0.9,9.3 0.9,-9.3 0.9,9.3 0.9,-9.3 h 1.8 l 0.9,9.3 0.9,-9.3 h 1.8 l 0.9,9.3 0.9,-9.3 h 0.9 l 0.89,-9.3 0.9,9.3 h 1.8 l 0.9,9.3 h 0.9 l 0.9,-9.3 0.9,9.3 h 0.9 l 0.9,-9.3 h 0.9 l 0.9,-9.3 0.9,18.6 0.9,-9.3 h 10.8 l 0.89,9.3 h 0.9 l 0.91,-9.3 0.89,9.3 0.9,-9.3 0.9,9.3 0.9,-9.3 h 1.8 l 0.9,9.3 0.9,-9.3 0.9,9.3 0.9,-9.3 0.9,-9.3 0.9,18.6 h 0.9 l 0.9,-9.3 h 2.69 l 0.9,9.3 0.9,-18.6 0.9,9.3 0.9,9.3 0.9,-18.6 h 0.9 l 0.9,9.3 0.9,9.3 h 0.9 l 0.9,-9.3 h 0.9 l 0.9,-9.3 0.9,9.3 0.9,-9.3 0.89,9.3 h 1.8 l 0.9,-9.3 0.9,9.3 0.9,-9.3 0.9,18.6 0.9,37.2 0.9,27.9 0.9,18.6 0.9,18.6 0.9,9.3 0.9,18.6 0.9,9.3 0.9,9.3 h 1.79 l 0.91,9.3 h 0.89 l 0.91,9.3 0.9,-9.3 0.89,9.3 0.91,18.6 0.89,-9.3 h 0.91 l 0.9,9.3 h 0.89 l 0.91,18.6 h 0.89 l 0.91,-9.3 0.89,9.3 h 0.9 l 0.9,9.3 h 0.9 l 0.9,9.3 h 1.8 l 0.9,9.3 h 2.7 l 0.9,9.3 0.9,9.3 h 1.79 l 0.9,9.3 0.9,-9.3 0.9,9.3 0.9,-9.3 0.9,9.3 h 2.7 l 0.9,9.3 h 1.8 l 0.9,9.3 h 1.8 l 0.89,9.3 0.9,9.3 h 0.9 l 0.9,-9.3 0.9,9.3 0.9,-9.3 0.9,18.6 0.9,-9.3 h 0.9 l 0.9,-9.3 0.9,9.3 0.9,9.3 0.9,9.3 0.9,-9.3 0.9,9.3 h 5.4 l 0.89,9.3 h 0.91 l 0.89,9.3 0.91,-9.3 0.9,9.3 0.89,-9.3 0.91,-9.3 0.89,9.3 0.9,18.6 0.9,-18.6 0.9,18.6 0.9,-18.6 0.9,9.3 h 2.7 l 0.9,-9.3 0.9,9.3 0.9,9.3 0.9,-9.3 0.9,9.3 h 0.9 l 0.9,-9.3 0.9,18.6 0.89,-9.3 0.9,9.3 0.9,-9.3 h 0.9 l 0.9,9.3 0.9,-9.3 0.9,9.3 0.9,-9.3 0.9,9.3 0.9,-9.3 h 2.7 l 0.9,18.6 0.89,-9.3 0.9,-9.3 0.9,9.3 h 1.8 l 0.9,-9.3 h 0.9 l 0.9,9.3 0.9,9.3 0.9,-9.3 h 0.9 l 0.9,9.3 0.9,-9.3 0.9,9.3 h 0.9 l 0.9,9.3 0.89,-9.3 0.91,-9.3 0.9,18.6 0.89,-9.3 0.91,-9.3 h 2.7 l 0.89,-9.3 0.91,-55.8 0.89,-65.1 0.91,-93 0.9,-120.9 0.89,-46.5 0.9,9.3 0.9,27.9 h 0.9 l 0.9,-9.3 0.9,9.3 0.9,-9.3 h 0.9 l 0.9,9.3 h 0.9 l 0.9,-9.3 h 0.9 l 0.9,9.3 0.9,-9.3 h 2.69 l 0.9,9.3 0.9,-9.3 h 2.7 l 0.9,9.3 h 0.9 l 0.9,-9.3 0.9,9.3 h 1.8 l 0.9,-9.3 0.9,9.3 0.9,-9.3 0.89,9.3 h 0.9 l 0.9,-9.3 0.9,9.3 h 0.9 l 0.9,-9.3 h 0.9 l 0.9,9.3 0.9,-9.3 h 3.6 l 0.9,9.3 h 0.9 l 0.89,-9.3 0.91,9.3 0.9,-9.3 h 5.39 l 0.91,9.3 0.89,-9.3 0.91,-9.3 0.9,9.3 0.89,9.3 0.91,-9.3 h 0.89 l 0.9,9.3 0.9,-9.3 0.9,9.3 0.9,-9.3 h 0.9 l 0.9,9.3 h 0.9 l 0.9,-9.3 0.9,9.3 0.9,-9.3 0.9,9.3 0.9,-9.3 h 5.39 l 0.9,9.3 0.9,-9.3 h 0.9 l 0.9,9.3 0.9,-9.3 0.9,9.3 0.9,-18.6 0.9,9.3 0.9,9.3 0.9,-9.3 0.89,9.3 0.9,-9.3 0.9,18.6 0.9,-18.6 0.9,-9.3 0.9,9.3 h 3.6 l 0.9,-9.3 0.9,9.3 0.9,9.3 0.9,-9.3 h 0.9 l 0.89,-9.3 0.9,9.3 h 5.41 l 0.89,9.3 h 0.91 l 0.89,-9.3 0.9,9.3 h 0.91 l 0.89,-9.3 h 0.91 l 0.89,-9.3 0.9,18.6 h 0.9 l 0.9,-9.3 h 0.9 l 0.9,9.3 0.9,-9.3 h 0.9 l 0.9,-9.3 0.9,9.3 0.9,9.3 0.9,-9.3 h 8.99 l 0.9,9.3 0.9,-9.3 h 0.9 l 0.9,9.3 0.9,-18.6 0.9,9.3 h 5.39 l 0.9,9.3 0.9,-18.6 0.9,9.3 h 2.7 l 0.9,-9.3 0.9,9.3 h 1.8 l 0.9,9.3 0.89,-9.3 h 0.91 l 0.89,-9.3 0.91,18.6 0.9,-9.3 0.89,-9.3 0.91,9.3 h 4.5 l 0.89,9.3 0.91,-9.3 h 2.69 l 0.9,-9.3 0.9,18.6 0.9,-9.3 h 1.8 l 0.9,9.3 0.9,-9.3 h 1.8 l 0.9,9.3 0.9,-9.3 h 0.9 l 0.89,18.6 0.9,-18.6 h 0.9 l 0.9,-9.3 0.9,9.3 h 1.8 l 0.9,9.3 0.9,-9.3 h 0.9 l 0.9,-9.3 h 0.9 l 0.9,18.6 h 1.8 l 0.89,-18.6 0.9,9.3 h 2.7 l 0.9,9.3 h 0.9 l 0.9,9.3 0.9,-9.3 0.9,-18.6 h 0.9 l 0.9,9.3 h 1.8 l 0.9,9.3 0.89,-9.3 0.91,9.3 h 0.89 l 0.91,-9.3 0.9,-9.3 0.89,18.6 h 0.91 l 0.89,-9.3 h 1.81 l 0.89,18.6 0.91,27.9 0.89,18.6 0.9,27.9 0.91,27.9 h 0.89 l 0.9,9.3 0.9,18.6 0.9,9.3 h 0.9 l 0.9,9.3 0.9,9.3 0.9,-18.6 0.9,9.3 0.9,9.3 0.9,9.3 h 0.9 l 0.9,9.3 0.9,-9.3 0.9,18.6 0.89,-9.3 0.9,9.3 0.9,9.3 h 4.5 l 0.9,9.3 0.9,9.3 h 2.7 l 0.9,9.3 h 1.79 l 0.9,9.3 h 0.9 l 0.9,9.3 h 1.8 l 0.9,9.3 h 3.6 l 0.9,9.3 0.9,9.3 h 2.7 l 0.9,-9.3 0.89,18.6 h 2.71 l 0.9,9.3 h 2.69 l 0.91,-9.3 0.9,18.6 0.89,-9.3 h 0.91 l 0.89,18.6 0.9,-9.3 0.9,9.3 0.9,-9.3 h 1.8 l 0.9,9.3 h 3.6 l 0.9,9.3 h 0.9 l 0.9,-9.3 0.9,9.3 h 0.89 l 0.9,9.3 0.9,-9.3 h 0.9 l 0.9,9.3 0.9,-9.3 0.9,9.3 h 2.7 l 0.9,9.3 h 0.9 l 0.9,-9.3 0.9,9.3 0.9,-9.3 0.89,9.3 h 1.8 l 0.9,9.3 0.9,-9.3 h 0.9 l 0.9,9.3 0.9,-9.3 h 0.9 l 0.9,9.3 0.9,-9.3 0.9,9.3 0.9,-9.3 h 1.8 l 0.9,9.3 h 1.79 l 0.91,-9.3 h 0.89 l 0.91,9.3 h 1.79 l 0.91,-9.3 0.89,18.6 0.91,-18.6 0.9,9.3 h 1.8 l 0.89,9.3 0.9,-9.3 h 0.9 l 0.9,9.3 h 6.3 l 0.9,-9.3 0.9,9.3 h 4.49 l 0.9,-9.3 0.9,-37.2 0.9,-55.8 0.9,-83.7 0.9,-120.9 0.9,-65.1 0.9,-27.9 0.9,37.2 h 0.9 l 0.9,-9.3 0.9,9.3 0.9,-18.6 h 0.89 l 0.9,9.3 0.9,9.3 0.9,9.3 0.9,-9.3 0.9,-9.3 0.9,9.3 h 0.9 l 0.9,-18.6 0.9,9.3 h 2.7 l 0.9,9.3 0.9,-9.3 h 5.39 l 0.91,9.3 h 0.89 l 0.91,-9.3 h 1.79 l 0.91,9.3 h 0.89 l 0.91,-9.3 0.89,9.3 0.9,-18.6 0.9,9.3 h 1.8 l 0.9,9.3 h 0.9 l 0.9,-9.3 h 0.9 l 0.9,9.3 h 4.5 l 0.9,-18.6 0.89,9.3 0.9,9.3 h 0.9 l 0.9,-9.3 0.9,9.3 0.9,-9.3 h 2.7 l 0.9,9.3 h 1.8 l 0.9,-9.3 h 0.9 l 0.9,9.3 0.89,-9.3 h 2.7 l 0.9,9.3 0.9,-9.3 h 4.5" />
        <path
           inkscape:connector-curvature="0"
           id="path4637"
           style="fill:none;stroke:#ff00ff;stroke-width:5.00250006;stroke-linecap:butt;stroke-linejoin:round;stroke-miterlimit:10;stroke-dasharray:none;stroke-opacity:1"
           d="m 3160.27,2575.5 h 18 l 4.5,-9.3 4.49,9.3 h 4.5 l 4.5,-9.3 4.49,9.3 h 13.5 l 4.5,-9.3 4.5,9.3 h 8.99 l 4.5,-9.3 h 4.49 l 4.5,9.3 4.5,-9.3 h 4.49 l 4.5,9.3 4.5,-9.3 h 4.49 l 4.5,9.3 h 13.5 l 4.5,-18.6 4.49,18.6 4.5,9.3 4.5,-18.6 4.49,9.3 4.5,-9.3 4.5,9.3 h 4.49 l 4.5,-9.3 h 9 l 4.5,-9.3 4.5,18.6 4.49,-9.3 4.5,-27.9 4.5,-502.2 4.49,9.3 4.5,-9.3 h 4.5 l 4.5,-9.3 4.5,9.3 h 4.5 l 4.49,-9.3 4.5,9.3 h 4.5 l 4.49,-9.3 4.5,9.3 4.5,-9.3 4.49,9.3 4.5,-9.3 4.5,18.6 4.5,-9.3 4.5,9.3 4.5,-9.3 h 4.49 l 4.5,-9.3 4.5,9.3 h 4.49 l 4.5,-9.3 h 8.99 l 4.5,9.3 h 4.5 l 4.49,-9.3 h 9 l 4.5,9.3 h 4.5 l 4.49,9.3 4.5,-9.3 4.5,9.3 4.49,-9.3 4.5,-9.3 h 9 l 4.5,9.3 h 4.5 l 4.49,-9.3 4.5,9.3 4.5,-9.3 h 13.49 l 4.49,9.3 h 13.5 l 4.5,-9.3 h 4.5 l 4.49,9.3 h 9 l 4.49,-9.3 h 17.99 l 4.5,9.3 h 4.49 l 4.5,-9.3 4.5,9.3 h 9 l 4.5,-9.3 4.49,9.3 4.5,102.3 4.5,46.5 4.49,18.6 4.5,27.9 4.5,9.3 4.5,18.6 4.5,18.6 4.5,9.3 4.49,9.3 4.5,9.3 4.5,9.3 4.49,18.6 4.5,9.3 4.5,9.3 4.49,-9.3 4.5,18.6 h 9 l 4.5,18.6 4.5,9.3 4.49,-9.3 4.5,18.6 h 13.49 l 4.5,9.3 4.49,-9.3 4.5,18.6 4.5,-9.3 h 8.99 l 4.5,9.3 h 4.5 l 4.5,9.3 4.5,-9.3 h 4.49 l 4.5,9.3 h 8.99 l 4.5,9.3 h 4.5 l 4.5,9.3 4.5,-9.3 4.5,9.3 h 8.99 l 4.5,9.3 h 17.98 l 4.5,9.3 4.5,-9.3 4.5,9.3 h 9 l 4.49,9.3 4.5,-9.3 4.5,9.3 h 8.99 l 4.49,9.3 h 9 l 4.49,9.3 4.5,-9.3 h 4.5 l 4.5,-9.3 4.5,9.3 4.5,9.3 h 13.49 l 4.49,-9.3 4.5,18.6 4.5,-9.3 h 9 l 4.5,9.3 h 13.49 l 4.49,-9.3 4.5,18.6 4.5,-9.3 h 4.49 l 4.5,9.3 h 9 l 4.5,9.3 4.5,-9.3 h 4.49 l 4.5,-9.3 h 4.5 l 4.49,9.3 h 26.98 l 4.5,-9.3 4.5,9.3 4.5,-9.3 4.5,9.3 4.5,-9.3 4.49,9.3 h 4.5 l 4.5,9.3 4.49,-9.3 4.5,18.6 h 4.5 l 4.5,-9.3 h 4.5 l 4.5,9.3 4.49,-9.3 h 13.49 l 4.5,9.3 4.5,-9.3 4.49,9.3 4.5,-9.3 4.5,9.3 h 4.5 l 4.5,-9.3 h 4.5 l 4.49,9.3 h 13.49 l 4.5,9.3 4.5,-9.3 h 8.99 l 4.5,9.3 h 17.99 l 4.5,9.3 4.5,-9.3 4.49,9.3 4.5,-9.3 4.5,18.6 4.49,-9.3 h 4.5 l 4.5,-9.3 4.49,9.3 h 13.5 l 4.5,-9.3 4.5,18.6 4.49,-9.3 4.5,-9.3 4.49,9.3 4.5,9.3 4.5,-9.3 h 4.5 l 4.5,9.3 h 4.5 l 4.5,-9.3 h 4.49 l 4.5,18.6 4.49,-18.6 4.5,18.6 4.5,-18.6 4.49,18.6 4.5,-18.6 h 13.49 l 4.5,9.3 h 9 l 4.5,-9.3 4.49,9.3 h 17.99 l 4.5,-9.3 4.49,9.3 h 13.5 l 4.5,9.3 4.5,-9.3 4.49,-9.3 h 4.5 l 4.5,9.3 4.49,-9.3 4.5,9.3 4.5,9.3 4.5,-9.3 h 4.5 l 4.5,-9.3 h 13.49 l 4.49,9.3 4.5,-241.8 4.5,-279 h 4.49 l 4.5,-9.3 h 4.5 l 4.49,9.3 4.5,-9.3 4.5,9.3 4.5,-9.3 4.5,9.3 h 8.99 l 4.5,-9.3 4.5,-9.3 4.49,9.3 4.5,9.3 4.5,-9.3 h 26.99 l 4.49,9.3 h 9 l 4.49,-9.3 4.5,9.3 4.5,-9.3 h 9 l 4.5,9.3 4.49,-9.3 h 4.5 l 4.5,9.3 4.49,-9.3 h 17.99 l 4.5,18.6 4.5,-18.6 4.5,9.3 h 4.5 l 4.49,-18.6 4.5,18.6 4.5,-9.3 4.49,9.3 h 4.5 l 4.49,-9.3 h 9 l 4.5,9.3 4.49,-9.3 h 18 l 4.49,9.3 h 13.49 l 4.5,-9.3 h 4.5 l 4.5,9.3 4.5,-9.3 4.5,-9.3 4.49,9.3 h 22.49 l 4.49,9.3 h 4.5 l 4.5,-9.3 4.5,9.3 4.5,-9.3 h 13.49 l 4.5,-9.3 4.49,18.6 h 9 l 4.49,-18.6 4.5,18.6 4.5,-9.3 h 4.49 l 4.5,9.3 h 18 l 4.49,-9.3 h 9 l 4.49,9.3 4.5,-9.3 4.5,-9.3 4.5,9.3 4.5,-9.3 4.5,9.3 h 13.49 l 4.49,-9.3 4.5,9.3 4.5,9.3 4.49,-9.3 h 9 l 4.5,-9.3 4.5,9.3 h 4.5 l 4.49,-9.3 h 9 l 4.49,9.3 h 22.49 l 4.49,9.3 4.5,-9.3 4.5,9.3 4.5,-9.3 h 4.5 l 4.5,-9.3 4.49,9.3 h 13.49 l 4.5,9.3 4.5,-9.3 4.5,-9.3 4.5,18.6 4.5,-9.3 h 4.49 l 4.5,-9.3 4.5,18.6 4.49,-9.3 4.5,-9.3 4.5,9.3 h 13.49 l 4.5,9.3 4.5,-9.3 h 17.98 l 4.5,-9.3 h 4.5 l 4.49,18.6 4.5,-9.3 4.5,9.3 4.49,-9.3 4.5,9.3 4.5,-9.3 h 9 l 4.5,-9.3 h 4.49 l 4.5,9.3 h 8.99 l 4.5,-9.3 h 4.5 l 4.5,9.3 4.5,-9.3 4.5,18.6 h 4.49 l 4.5,-9.3 h 4.5 l 4.49,-9.3 4.5,9.3 h 8.99 l 4.5,-9.3 h 9 l 4.5,9.3 h 4.5 l 4.49,-9.3 4.5,9.3 h 4.5 l 4.49,9.3 h 4.5 l 4.5,-9.3 4.49,-9.3 4.5,9.3 h 4.5 l 4.49,-9.3 h 4.5 l 4.5,9.3 4.5,-9.3 4.5,9.3 h 13.49 l 4.5,-9.3 h 4.49 l 4.5,9.3 4.5,9.3 4.5,-9.3 h 13.49 l 4.5,-9.3 h 4.5 l 4.49,9.3 4.5,-9.3 4.5,9.3 h 4.49 l 4.5,9.3 4.5,-9.3 h 9 l 4.5,-9.3 4.49,9.3 4.5,9.3 4.5,-18.6 4.49,9.3 4.5,9.3 4.5,-9.3 h 4.49 l 4.5,9.3 4.5,-9.3 h 8.99 l 4.5,-9.3 4.5,9.3 4.5,-9.3 4.5,9.3 h 8.99 l 4.5,9.3 4.49,9.3 4.5,-18.6 4.5,-9.3 4.49,9.3 h 13.5 l 4.5,9.3 4.5,-9.3 h 4.49 l 4.5,9.3 4.5,-9.3 h 13.49 l 4.5,9.3 h 4.5 l 4.49,-18.6 4.5,27.9 4.5,-18.6 h 8.99 l 4.5,9.3 4.49,-9.3 4.5,-9.3 4.5,9.3 4.49,-9.3 4.5,9.3 4.5,-9.3 h 9 l 4.5,9.3 4.49,9.3 4.5,-18.6 4.5,9.3 h 17.98 l 4.5,-9.3 4.51,9.3 h 8.99 l 4.5,9.3 4.49,-9.3 4.5,-9.3 h 4.5 l 4.49,9.3 h 9 l 4.5,9.3 4.5,-9.3 4.5,9.3 h 4.49 l 4.5,-9.3 4.5,-9.3 4.49,9.3 4.5,-9.3 4.5,120.9 4.49,46.5 4.5,18.6 4.5,18.6 4.49,9.3 4.5,18.6 4.5,18.6 4.5,27.9 4.5,9.3 h 4.5 l 4.49,18.6 4.5,-9.3 4.5,9.3 4.49,18.6 4.5,18.6 h 8.99 l 4.5,9.3 h 4.5 l 4.5,9.3 h 4.5 l 4.5,18.6 4.49,-18.6 4.5,18.6 h 8.99 l 4.5,9.3 h 9 l 4.5,-9.3 4.5,9.3 4.49,9.3 4.5,-9.3 4.5,9.3 4.49,9.3 4.5,-18.6 4.5,9.3 4.49,9.3 h 4.5 l 4.5,9.3 h 4.5 l 4.5,9.3 4.5,-9.3 h 4.49 l 4.5,9.3 h 8.99 l 4.5,9.3 4.5,-9.3 4.49,9.3 h 8.99 l 4.5,9.3 4.5,-9.3 4.5,9.3 h 13.49 l 4.5,9.3 4.5,-9.3 4.49,9.3 h 13.5 l 4.5,9.3 h 4.5 l 4.49,9.3 h 4.5 l 4.5,-9.3 4.49,9.3 4.5,-9.3 4.5,9.3 4.49,-9.3 h 4.5 l 4.5,9.3 h 4.5 l 4.5,-9.3 4.5,9.3 h 8.99 l 4.5,9.3 h 8.99 l 4.5,9.3 h 8.99 l 4.5,-9.3 h 4.49 l 4.5,9.3 h 4.5 l 4.5,9.3 h 4.5 l 4.5,-9.3 4.49,-9.3 4.5,9.3 h 4.5 l 4.49,-9.3 h 13.5 l 4.5,9.3 4.5,-9.3 4.49,-223.2 4.5,-241.8 4.5,-9.3 h 4.49 l 4.5,9.3 h 4.5 l 4.49,-9.3 h 31.49 l 4.5,-9.3 4.49,9.3 h 17.99 l 4.5,9.3 h 22.49 l 4.5,-9.3 4.49,18.6 4.5,-9.3 4.5,-9.3 4.49,9.3 4.5,-9.3 4.5,9.3 4.5,-9.3 h 22.49 l 4.49,9.3 4.5,-9.3 4.5,9.3 4.49,-9.3 h 44.98 l 4.49,9.3 h 17.99 l 4.5,-9.3 h 4.5 l 4.5,9.3 h 4.5 l 4.49,-9.3 h 4.5 l 4.5,9.3 4.49,-9.3 h 18 l 4.5,9.3 4.49,-9.3 4.5,9.3 4.5,-9.3 h 17.98 l 4.5,9.3 4.5,-9.3 4.5,9.3 4.5,-9.3 h 4.5 l 4.49,9.3 4.5,-9.3 4.5,-9.3 4.49,27.9 4.5,-18.6 4.5,9.3 4.49,-9.3 4.5,9.3 h 4.5 l 4.49,-9.3 4.5,-9.3 4.5,18.6 4.5,-9.3 h 22.49 l 4.49,-9.3 4.5,9.3 h 9 l 4.49,-9.3 4.51,9.3 h 4.49 l 4.5,-9.3 h 17.99 l 4.49,9.3 h 22.5 l 4.49,9.3 h 4.5 l 4.5,-9.3 4.49,9.3 h 17.99 l 4.5,-9.3 h 17.99 l 4.5,-9.3 4.49,9.3 h 22.49 l 4.5,-9.3 4.5,18.6 4.49,-9.3 4.51,9.3 4.49,-9.3 h 8.99 l 4.5,-9.3 4.5,18.6 4.49,-18.6 4.5,9.3 h 9 l 4.5,9.3 4.5,-9.3 4.49,9.3 4.5,-9.3 4.5,9.3 4.49,-9.3 4.5,9.3 4.5,-9.3 h 17.98 l 4.5,-9.3 4.5,9.3 h 17.99 l 4.5,9.3 4.5,-9.3 h 17.98 l 4.51,-9.3 4.49,9.3 4.5,-9.3 4.5,18.6 4.5,-9.3 h 8.99 l 4.5,9.3 4.49,-9.3 h 4.5 l 4.5,9.3 4.5,-9.3 4.5,9.3 4.5,-9.3 4.49,9.3 4.5,-9.3 4.5,-9.3 4.49,9.3 4.5,-9.3 h 4.5 l 4.49,9.3 4.5,-9.3 4.5,111.6 4.49,55.8 4.5,18.6 4.5,18.6 4.5,18.6 4.5,18.6 4.5,9.3 4.49,18.6 h 4.5 l 4.5,9.3 4.49,18.6 4.5,9.3 4.5,9.3 4.49,9.3 4.5,9.3 4.5,9.3 h 9 l 4.5,9.3 h 4.49 l 4.5,18.6 4.5,9.3 4.49,-9.3 h 4.5 l 4.5,9.3 h 9 l 4.5,9.3 4.49,9.3 4.5,-9.3 4.5,9.3 4.49,-9.3 h 4.5 l 4.5,-9.3 4.49,9.3 4.5,9.3 4.5,9.3 h 4.5 l 4.5,9.3 4.49,-9.3 4.5,9.3 4.5,9.3 h 8.99 l 4.5,9.3 4.5,-18.6 4.49,18.6 h 4.5 l 4.49,-9.3 4.5,9.3 h 9 l 4.5,9.3 h 4.5 l 4.49,9.3 h 17.99 l 4.5,-9.3 4.5,9.3 h 4.5 l 4.5,9.3 h 8.99 l 4.5,-9.3 h 8.99 l 4.5,18.6 4.49,-18.6 4.5,18.6 h 9 l 4.5,-9.3 4.5,18.6 h 8.99 l 4.5,-18.6 4.49,18.6 h 31.48 l 4.5,9.3 h 9 l 4.5,-9.3 h 4.49 l 4.5,9.3 4.5,-9.3 4.49,-9.3 4.5,9.3 h 18 l 4.49,9.3 h 13.49 l 4.5,9.3 4.5,-37.2 4.49,-474.3 4.5,27.9 4.5,-18.6 4.5,9.3 h 13.49 l 4.5,9.3 4.5,-9.3 4.49,9.3 h 4.5 l 4.5,-9.3 h 4.49 l 4.5,9.3 h 22.49 l 4.5,-9.3 4.5,-9.3 4.49,18.6 h 4.5 l 4.5,-9.3 h 4.49 l 4.5,9.3 4.5,-9.3 h 4.5 l 4.5,9.3 4.5,-9.3 h 8.99" />
        <path
           inkscape:connector-curvature="0"
           id="path4639"
           style="fill:#ffffff;fill-opacity:1;fill-rule:nonzero;stroke:none"
           d="M 6900,2557.5 H 8062.5 V 2835 H 6900 Z" />
        <g
           transform="scale(10)"
           id="g4641">
          <text
             id="text4645"
             style="font-variant:normal;font-weight:normal;font-size:9px;font-family:Helvetica;-inkscape-font-specification:Helvetica;writing-mode:lr-tb;fill:#000000;fill-opacity:1;fill-rule:nonzero;stroke:none"
             transform="matrix(1,0,0,-1,725.25,272.25)">
            <tspan
               id="tspan4643"
               sodipodi:role="line"
               y="0"
               x="0 5.0040002 10.008">20k</tspan>
          </text>
        </g>
        <path
           inkscape:connector-curvature="0"
           id="path4647"
           style="fill:#000000;fill-opacity:1;fill-rule:nonzero;stroke:none"
           d="m 7409.41,2722.5 -2.93,15 h 2.58 c 0.32,-1.79 0.61,-3.36 0.88,-4.69 0.27,-1.33 0.63,-2.26 1.06,-2.81 0.43,-0.54 1.11,-0.9 2.05,-1.06 0.93,-0.15 2.5,-0.23 4.68,-0.23 h 5.52 c -0.95,3.36 -3.15,7.77 -6.63,13.25 -3.47,5.47 -5.85,9.45 -7.14,11.95 -1.3,2.5 -1.94,5.7 -1.94,9.61 0,4.53 1.35,8.49 4.04,11.89 2.7,3.4 6.17,6.02 10.44,7.86 4.25,1.83 8.57,2.75 12.94,2.75 4.38,0 8.69,-0.92 12.95,-2.75 4.26,-1.84 7.73,-4.48 10.43,-7.92 2.69,-3.44 4.04,-7.38 4.04,-11.83 0,-3.05 -0.56,-5.93 -1.7,-8.62 -1.13,-2.69 -2.55,-5.39 -4.27,-8.08 -1.72,-2.7 -3.58,-5.71 -5.57,-9.03 -1.99,-3.32 -3.38,-6.34 -4.16,-9.08 h 5.51 c 2.19,0 3.77,0.08 4.74,0.23 0.98,0.16 1.66,0.52 2.05,1.06 0.39,0.55 0.73,1.48 1,2.81 0.27,1.33 0.57,2.9 0.88,4.69 h 2.58 l -2.94,-15 h -15.93 c -0.63,0 -0.94,0.39 -0.94,1.17 0,3.05 0.37,6.04 1.12,8.97 0.74,2.93 1.85,6.48 3.34,10.66 1.48,4.18 2.63,7.85 3.45,11.02 0.82,3.16 1.23,6.23 1.23,9.2 0,3.59 -0.7,6.91 -2.11,9.96 -1.4,3.04 -3.45,5.5 -6.14,7.38 -2.7,1.87 -5.88,2.81 -9.56,2.81 -5.47,0 -9.8,-1.95 -13,-5.86 -3.21,-3.9 -4.81,-8.67 -4.81,-14.29 0.08,-3.13 0.47,-6.06 1.17,-8.79 0.7,-2.74 1.84,-6.37 3.4,-10.9 1.56,-4.53 2.71,-8.26 3.45,-11.19 0.75,-2.93 1.12,-5.92 1.12,-8.97 0,-0.78 -0.31,-1.17 -0.94,-1.17 h -15.94" />
        <g
           transform="scale(10)"
           id="g4649">
          <text
             id="text4653"
             style="font-variant:normal;font-weight:normal;font-size:9px;font-family:Helvetica;-inkscape-font-specification:Helvetica;writing-mode:lr-tb;fill:#000000;fill-opacity:1;fill-rule:nonzero;stroke:none"
             transform="matrix(1,0,0,-1,747,272.25)">
            <tspan
               id="tspan4651"
               sodipodi:role="line"
               y="0"
               x="0 2.5020001 5.0040002 10.008 15.012 20.016001 24.516001 31.014 35.514 38.015999 41.013 43.514999 48.519001 50.516998 52.514999">, 400kHz (fail)</tspan>
          </text>
        </g>
        <path
           inkscape:connector-curvature="0"
           id="path4655"
           style="fill:none;stroke:#000000;stroke-width:5.00250006;stroke-linecap:butt;stroke-linejoin:round;stroke-miterlimit:10;stroke-dasharray:none;stroke-opacity:1"
           d="m 6930,2758.97 h 300" />
        <g
           transform="scale(10)"
           id="g4657">
          <text
             id="text4661"
             style="font-variant:normal;font-weight:normal;font-size:9px;font-family:Helvetica;-inkscape-font-specification:Helvetica;writing-mode:lr-tb;fill:#000000;fill-opacity:1;fill-rule:nonzero;stroke:none"
             transform="matrix(1,0,0,-1,725.25,259.5)">
            <tspan
               id="tspan4659"
               sodipodi:role="line"
               y="0"
               x="0 5.0040002 10.008">20k</tspan>
          </text>
        </g>
        <path
           inkscape:connector-curvature="0"
           id="path4663"
           style="fill:#000000;fill-opacity:1;fill-rule:nonzero;stroke:none"
           d="m 7409.41,2595 -2.93,15 h 2.58 c 0.32,-1.79 0.61,-3.36 0.88,-4.69 0.27,-1.33 0.63,-2.26 1.06,-2.81 0.43,-0.54 1.11,-0.9 2.05,-1.06 0.93,-0.15 2.5,-0.23 4.68,-0.23 h 5.52 c -0.95,3.36 -3.15,7.77 -6.63,13.25 -3.47,5.47 -5.85,9.45 -7.14,11.95 -1.3,2.5 -1.94,5.7 -1.94,9.61 0,4.53 1.35,8.49 4.04,11.89 2.7,3.4 6.17,6.02 10.44,7.86 4.25,1.83 8.57,2.75 12.94,2.75 4.38,0 8.69,-0.92 12.95,-2.75 4.26,-1.84 7.73,-4.48 10.43,-7.92 2.69,-3.44 4.04,-7.38 4.04,-11.83 0,-3.05 -0.56,-5.93 -1.7,-8.62 -1.13,-2.69 -2.55,-5.39 -4.27,-8.08 -1.72,-2.7 -3.58,-5.71 -5.57,-9.03 -1.99,-3.32 -3.38,-6.34 -4.16,-9.08 h 5.51 c 2.19,0 3.77,0.08 4.74,0.23 0.98,0.16 1.66,0.52 2.05,1.06 0.39,0.55 0.73,1.48 1,2.81 0.27,1.33 0.57,2.9 0.88,4.69 h 2.58 l -2.94,-15 h -15.93 c -0.63,0 -0.94,0.39 -0.94,1.17 0,3.05 0.37,6.04 1.12,8.97 0.74,2.93 1.85,6.48 3.34,10.66 1.48,4.18 2.63,7.85 3.45,11.02 0.82,3.16 1.23,6.23 1.23,9.2 0,3.59 -0.7,6.91 -2.11,9.96 -1.4,3.04 -3.45,5.5 -6.14,7.38 -2.7,1.87 -5.88,2.81 -9.56,2.81 -5.47,0 -9.8,-1.95 -13,-5.86 -3.21,-3.9 -4.81,-8.67 -4.81,-14.29 0.08,-3.13 0.47,-6.06 1.17,-8.79 0.7,-2.74 1.84,-6.37 3.4,-10.9 1.56,-4.53 2.71,-8.26 3.45,-11.19 0.75,-2.93 1.12,-5.92 1.12,-8.97 0,-0.78 -0.31,-1.17 -0.94,-1.17 h -15.94" />
        <g
           transform="scale(10)"
           id="g4665">
          <text
             id="text4669"
             style="font-variant:normal;font-weight:normal;font-size:9px;font-family:Helvetica;-inkscape-font-specification:Helvetica;writing-mode:lr-tb;fill:#000000;fill-opacity:1;fill-rule:nonzero;stroke:none"
             transform="matrix(1,0,0,-1,747,259.5)">
            <tspan
               id="tspan4667"
               sodipodi:role="line"
               y="0"
               x="0 2.5020001 5.0040002 10.008 15.012 20.016001 24.516001 31.014">, 100kHz</tspan>
          </text>
        </g>
        <path
           inkscape:connector-curvature="0"
           id="path4671"
           style="fill:none;stroke:#ff00ff;stroke-width:5.00250006;stroke-linecap:butt;stroke-linejoin:round;stroke-miterlimit:10;stroke-dasharray:none;stroke-opacity:1"
           d="m 6930,2633.53 h 300" />
        <path
           inkscape:connector-curvature="0"
           id="path4673"
           style="fill:none;stroke:#262626;stroke-width:5.00250006;stroke-linecap:butt;stroke-linejoin:miter;stroke-miterlimit:10;stroke-dasharray:none;stroke-opacity:1"
           d="M 6900,2557.5 H 8062.5 V 2835 H 6900 Z" />
        <path
           inkscape:connector-curvature="0"
           id="path4675"
           style="fill:#ffffff;fill-opacity:1;fill-rule:nonzero;stroke:none"
           d="m 1162.5,390 h 6945 v 930 h -6945 z" />
        <path
           inkscape:connector-curvature="0"
           id="path4677"
           style="fill:none;stroke:#dfdfdf;stroke-width:5.00250006;stroke-linecap:butt;stroke-linejoin:round;stroke-miterlimit:10;stroke-dasharray:none;stroke-opacity:1"
           d="m 1559.18,390 v 930" />
        <path
           inkscape:connector-curvature="0"
           id="path4679"
           style="fill:none;stroke:#dfdfdf;stroke-width:5.00250006;stroke-linecap:butt;stroke-linejoin:round;stroke-miterlimit:10;stroke-dasharray:none;stroke-opacity:1"
           d="m 2458.67,390 v 930" />
        <path
           inkscape:connector-curvature="0"
           id="path4681"
           style="fill:none;stroke:#dfdfdf;stroke-width:5.00250006;stroke-linecap:butt;stroke-linejoin:round;stroke-miterlimit:10;stroke-dasharray:none;stroke-opacity:1"
           d="m 3358.17,390 v 930" />
        <path
           inkscape:connector-curvature="0"
           id="path4683"
           style="fill:none;stroke:#dfdfdf;stroke-width:5.00250006;stroke-linecap:butt;stroke-linejoin:round;stroke-miterlimit:10;stroke-dasharray:none;stroke-opacity:1"
           d="m 4257.66,390 v 930" />
        <path
           inkscape:connector-curvature="0"
           id="path4685"
           style="fill:none;stroke:#dfdfdf;stroke-width:5.00250006;stroke-linecap:butt;stroke-linejoin:round;stroke-miterlimit:10;stroke-dasharray:none;stroke-opacity:1"
           d="m 5157.16,390 v 930" />
        <path
           inkscape:connector-curvature="0"
           id="path4687"
           style="fill:none;stroke:#dfdfdf;stroke-width:5.00250006;stroke-linecap:butt;stroke-linejoin:round;stroke-miterlimit:10;stroke-dasharray:none;stroke-opacity:1"
           d="m 6056.66,390 v 930" />
        <path
           inkscape:connector-curvature="0"
           id="path4689"
           style="fill:none;stroke:#dfdfdf;stroke-width:5.00250006;stroke-linecap:butt;stroke-linejoin:round;stroke-miterlimit:10;stroke-dasharray:none;stroke-opacity:1"
           d="m 6956.14,390 v 930" />
        <path
           inkscape:connector-curvature="0"
           id="path4691"
           style="fill:none;stroke:#dfdfdf;stroke-width:5.00250006;stroke-linecap:butt;stroke-linejoin:round;stroke-miterlimit:10;stroke-dasharray:none;stroke-opacity:1"
           d="m 7855.64,390 v 930" />
        <path
           inkscape:connector-curvature="0"
           id="path4693"
           style="fill:none;stroke:#dfdfdf;stroke-width:5.00250006;stroke-linecap:butt;stroke-linejoin:round;stroke-miterlimit:10;stroke-dasharray:none;stroke-opacity:1"
           d="m 8107.5,390 h -6945" />
        <path
           inkscape:connector-curvature="0"
           id="path4695"
           style="fill:none;stroke:#dfdfdf;stroke-width:5.00250006;stroke-linecap:butt;stroke-linejoin:round;stroke-miterlimit:10;stroke-dasharray:none;stroke-opacity:1"
           d="m 8107.5,622.5 h -6945" />
        <path
           inkscape:connector-curvature="0"
           id="path4697"
           style="fill:none;stroke:#dfdfdf;stroke-width:5.00250006;stroke-linecap:butt;stroke-linejoin:round;stroke-miterlimit:10;stroke-dasharray:none;stroke-opacity:1"
           d="m 8107.5,855 h -6945" />
        <path
           inkscape:connector-curvature="0"
           id="path4699"
           style="fill:none;stroke:#dfdfdf;stroke-width:5.00250006;stroke-linecap:butt;stroke-linejoin:round;stroke-miterlimit:10;stroke-dasharray:none;stroke-opacity:1"
           d="m 8107.5,1087.5 h -6945" />
        <path
           inkscape:connector-curvature="0"
           id="path4701"
           style="fill:none;stroke:#dfdfdf;stroke-width:5.00250006;stroke-linecap:butt;stroke-linejoin:round;stroke-miterlimit:10;stroke-dasharray:none;stroke-opacity:1"
           d="m 8107.5,1320 h -6945" />
        <path
           inkscape:connector-curvature="0"
           id="path4703"
           style="fill:none;stroke:#262626;stroke-width:5.00250006;stroke-linecap:square;stroke-linejoin:round;stroke-miterlimit:10;stroke-dasharray:none;stroke-opacity:1"
           d="m 1162.5,390 h 6945" />
        <path
           inkscape:connector-curvature="0"
           id="path4705"
           style="fill:none;stroke:#262626;stroke-width:5.00250006;stroke-linecap:square;stroke-linejoin:round;stroke-miterlimit:10;stroke-dasharray:none;stroke-opacity:1"
           d="m 1162.5,1320 h 6945" />
        <path
           inkscape:connector-curvature="0"
           id="path4707"
           style="fill:none;stroke:#262626;stroke-width:5.00250006;stroke-linecap:square;stroke-linejoin:round;stroke-miterlimit:10;stroke-dasharray:none;stroke-opacity:1"
           d="m 1559.18,390 v 69.449" />
        <path
           inkscape:connector-curvature="0"
           id="path4709"
           style="fill:none;stroke:#262626;stroke-width:5.00250006;stroke-linecap:square;stroke-linejoin:round;stroke-miterlimit:10;stroke-dasharray:none;stroke-opacity:1"
           d="m 2458.67,390 v 69.449" />
        <path
           inkscape:connector-curvature="0"
           id="path4711"
           style="fill:none;stroke:#262626;stroke-width:5.00250006;stroke-linecap:square;stroke-linejoin:round;stroke-miterlimit:10;stroke-dasharray:none;stroke-opacity:1"
           d="m 3358.17,390 v 69.449" />
        <path
           inkscape:connector-curvature="0"
           id="path4713"
           style="fill:none;stroke:#262626;stroke-width:5.00250006;stroke-linecap:square;stroke-linejoin:round;stroke-miterlimit:10;stroke-dasharray:none;stroke-opacity:1"
           d="m 4257.66,390 v 69.449" />
        <path
           inkscape:connector-curvature="0"
           id="path4715"
           style="fill:none;stroke:#262626;stroke-width:5.00250006;stroke-linecap:square;stroke-linejoin:round;stroke-miterlimit:10;stroke-dasharray:none;stroke-opacity:1"
           d="m 5157.16,390 v 69.449" />
        <path
           inkscape:connector-curvature="0"
           id="path4717"
           style="fill:none;stroke:#262626;stroke-width:5.00250006;stroke-linecap:square;stroke-linejoin:round;stroke-miterlimit:10;stroke-dasharray:none;stroke-opacity:1"
           d="m 6056.66,390 v 69.449" />
        <path
           inkscape:connector-curvature="0"
           id="path4719"
           style="fill:none;stroke:#262626;stroke-width:5.00250006;stroke-linecap:square;stroke-linejoin:round;stroke-miterlimit:10;stroke-dasharray:none;stroke-opacity:1"
           d="m 6956.14,390 v 69.449" />
        <path
           inkscape:connector-curvature="0"
           id="path4721"
           style="fill:none;stroke:#262626;stroke-width:5.00250006;stroke-linecap:square;stroke-linejoin:round;stroke-miterlimit:10;stroke-dasharray:none;stroke-opacity:1"
           d="m 7855.64,390 v 69.449" />
        <path
           inkscape:connector-curvature="0"
           id="path4723"
           style="fill:none;stroke:#262626;stroke-width:5.00250006;stroke-linecap:square;stroke-linejoin:round;stroke-miterlimit:10;stroke-dasharray:none;stroke-opacity:1"
           d="m 1559.18,1320 v -69.45" />
        <path
           inkscape:connector-curvature="0"
           id="path4725"
           style="fill:none;stroke:#262626;stroke-width:5.00250006;stroke-linecap:square;stroke-linejoin:round;stroke-miterlimit:10;stroke-dasharray:none;stroke-opacity:1"
           d="m 2458.67,1320 v -69.45" />
        <path
           inkscape:connector-curvature="0"
           id="path4727"
           style="fill:none;stroke:#262626;stroke-width:5.00250006;stroke-linecap:square;stroke-linejoin:round;stroke-miterlimit:10;stroke-dasharray:none;stroke-opacity:1"
           d="m 3358.17,1320 v -69.45" />
        <path
           inkscape:connector-curvature="0"
           id="path4729"
           style="fill:none;stroke:#262626;stroke-width:5.00250006;stroke-linecap:square;stroke-linejoin:round;stroke-miterlimit:10;stroke-dasharray:none;stroke-opacity:1"
           d="m 4257.66,1320 v -69.45" />
        <path
           inkscape:connector-curvature="0"
           id="path4731"
           style="fill:none;stroke:#262626;stroke-width:5.00250006;stroke-linecap:square;stroke-linejoin:round;stroke-miterlimit:10;stroke-dasharray:none;stroke-opacity:1"
           d="m 5157.16,1320 v -69.45" />
        <path
           inkscape:connector-curvature="0"
           id="path4733"
           style="fill:none;stroke:#262626;stroke-width:5.00250006;stroke-linecap:square;stroke-linejoin:round;stroke-miterlimit:10;stroke-dasharray:none;stroke-opacity:1"
           d="m 6056.66,1320 v -69.45" />
        <path
           inkscape:connector-curvature="0"
           id="path4735"
           style="fill:none;stroke:#262626;stroke-width:5.00250006;stroke-linecap:square;stroke-linejoin:round;stroke-miterlimit:10;stroke-dasharray:none;stroke-opacity:1"
           d="m 6956.14,1320 v -69.45" />
        <path
           inkscape:connector-curvature="0"
           id="path4737"
           style="fill:none;stroke:#262626;stroke-width:5.00250006;stroke-linecap:square;stroke-linejoin:round;stroke-miterlimit:10;stroke-dasharray:none;stroke-opacity:1"
           d="m 7855.64,1320 v -69.45" />
        <g
           transform="scale(10)"
           id="g4739">
          <text
             id="text4743"
             style="font-variant:normal;font-weight:normal;font-size:9.99975014px;font-family:Helvetica;-inkscape-font-specification:Helvetica;writing-mode:lr-tb;fill:#262626;fill-opacity:1;fill-rule:nonzero;stroke:none"
             transform="matrix(1,0,0,-1,152.918,24.5)">
            <tspan
               id="tspan4741"
               sodipodi:role="line"
               y="0"
               x="0 87.324615 92.884476 177.27426 182.83412 267.22351 272.78339 357.17316 362.73303 444.1228 449.68265 455.24252 534.07245 539.63232 545.1922 624.02173 629.58154 635.14142">020406080100120140</tspan>
          </text>
          <text
             id="text4747"
             style="font-variant:normal;font-weight:normal;font-size:11.00020027px;font-family:Helvetica;-inkscape-font-specification:Helvetica;writing-mode:lr-tb;fill:#262626;fill-opacity:1;fill-rule:nonzero;stroke:none"
             transform="matrix(1,0,0,-1,441,9.75)">
            <tspan
               id="tspan4745"
               sodipodi:role="line"
               y="0"
               x="0 3.0580556 5.5001001 14.663266 20.779377 23.837433">time (</tspan>
          </text>
        </g>
        <path
           inkscape:connector-curvature="0"
           id="path4749"
           style="fill:#262626;fill-opacity:1;fill-rule:nonzero;stroke:none"
           d="m 4690.66,76.4023 c 0,0.3946 0.05,0.6719 0.13,0.8243 l 16.52,66.4454 c 0.31,1.012 0.89,1.851 1.75,2.519 0.86,0.664 1.84,0.997 2.94,0.997 0.93,0 1.73,-0.274 2.39,-0.817 0.67,-0.551 1,-1.293 1,-2.23 0,-0.235 0,-0.43 0,-0.582 0,-0.161 -0.04,-0.278 -0.12,-0.356 l -6.67,-26.367 c -0.71,-3.125 -1.06,-5.82 -1.06,-8.086 0,-2.809 0.67,-5.094 2,-6.855 1.32,-1.758 3.31,-2.6411 5.96,-2.6411 5.48,0 10.28,3.4021 14.42,10.1991 0,0.078 0.02,0.133 0.06,0.176 0.04,0.039 0.06,0.098 0.06,0.18 l 8.09,32.57 c 0.23,1.019 0.82,1.883 1.75,2.582 0.94,0.703 1.96,1.055 3.05,1.055 0.86,0 1.62,-0.289 2.28,-0.875 0.67,-0.59 1,-1.352 1,-2.289 0,-0.469 -0.04,-0.782 -0.11,-0.938 l -8.1,-32.348 c -0.54,-2.183 -0.81,-4.019 -0.81,-5.503 0,-3.204 1.09,-4.8091 3.28,-4.8091 2.34,0 4.12,1.4491 5.33,4.3441 1.21,2.89 2.25,6.363 3.11,10.425 0.16,0.469 0.47,0.704 0.94,0.704 h 1.28 c 0.32,0 0.57,-0.118 0.76,-0.352 0.2,-0.234 0.3,-0.508 0.3,-0.816 -1.33,-5.235 -2.78,-9.438 -4.34,-12.602 -1.56,-3.164 -4.1,-4.7461 -7.62,-4.7461 -2.42,0 -4.6,0.7227 -6.56,2.168 -1.95,1.4453 -3.2,3.3791 -3.75,5.8051 -1.87,-2.348 -4.06,-4.2621 -6.56,-5.7465 -2.5,-1.4844 -5.16,-2.2266 -7.97,-2.2266 -4.69,0 -8.36,1.0938 -11.01,3.2852 l -5.75,-22.7422 c -0.23,-1.0156 -0.77,-1.8555 -1.63,-2.5195 -0.86,-0.6602 -1.84,-0.9883 -2.94,-0.9883 -0.93,0 -1.73,0.2695 -2.4,0.8164 -0.66,0.5469 -1,1.3242 -1,2.3398" />
        <g
           transform="scale(10)"
           id="g4751">
          <text
             id="text4755"
             style="font-variant:normal;font-weight:normal;font-size:11.00020027px;font-family:Helvetica;-inkscape-font-specification:Helvetica;writing-mode:lr-tb;fill:#262626;fill-opacity:1;fill-rule:nonzero;stroke:none"
             transform="matrix(1,0,0,-1,475.5,9.75)">
            <tspan
               id="tspan4753"
               sodipodi:role="line"
               y="0"
               x="0 5.5001001">s)</tspan>
          </text>
        </g>
        <path
           inkscape:connector-curvature="0"
           id="path4757"
           style="fill:none;stroke:#262626;stroke-width:5.00250006;stroke-linecap:square;stroke-linejoin:round;stroke-miterlimit:10;stroke-dasharray:none;stroke-opacity:1"
           d="m 1162.5,390 v 930" />
        <path
           inkscape:connector-curvature="0"
           id="path4759"
           style="fill:none;stroke:#262626;stroke-width:5.00250006;stroke-linecap:square;stroke-linejoin:round;stroke-miterlimit:10;stroke-dasharray:none;stroke-opacity:1"
           d="m 8107.5,390 v 930" />
        <path
           inkscape:connector-curvature="0"
           id="path4761"
           style="fill:none;stroke:#262626;stroke-width:5.00250006;stroke-linecap:square;stroke-linejoin:round;stroke-miterlimit:10;stroke-dasharray:none;stroke-opacity:1"
           d="m 1162.5,390 h 69.45" />
        <path
           inkscape:connector-curvature="0"
           id="path4763"
           style="fill:none;stroke:#262626;stroke-width:5.00250006;stroke-linecap:square;stroke-linejoin:round;stroke-miterlimit:10;stroke-dasharray:none;stroke-opacity:1"
           d="m 1162.5,622.5 h 69.45" />
        <path
           inkscape:connector-curvature="0"
           id="path4765"
           style="fill:none;stroke:#262626;stroke-width:5.00250006;stroke-linecap:square;stroke-linejoin:round;stroke-miterlimit:10;stroke-dasharray:none;stroke-opacity:1"
           d="m 1162.5,855 h 69.45" />
        <path
           inkscape:connector-curvature="0"
           id="path4767"
           style="fill:none;stroke:#262626;stroke-width:5.00250006;stroke-linecap:square;stroke-linejoin:round;stroke-miterlimit:10;stroke-dasharray:none;stroke-opacity:1"
           d="m 1162.5,1087.5 h 69.45" />
        <path
           inkscape:connector-curvature="0"
           id="path4769"
           style="fill:none;stroke:#262626;stroke-width:5.00250006;stroke-linecap:square;stroke-linejoin:round;stroke-miterlimit:10;stroke-dasharray:none;stroke-opacity:1"
           d="m 1162.5,1320 h 69.45" />
        <path
           inkscape:connector-curvature="0"
           id="path4771"
           style="fill:none;stroke:#262626;stroke-width:5.00250006;stroke-linecap:square;stroke-linejoin:round;stroke-miterlimit:10;stroke-dasharray:none;stroke-opacity:1"
           d="m 8107.5,390 h -69.45" />
        <path
           inkscape:connector-curvature="0"
           id="path4773"
           style="fill:none;stroke:#262626;stroke-width:5.00250006;stroke-linecap:square;stroke-linejoin:round;stroke-miterlimit:10;stroke-dasharray:none;stroke-opacity:1"
           d="m 8107.5,622.5 h -69.45" />
        <path
           inkscape:connector-curvature="0"
           id="path4775"
           style="fill:none;stroke:#262626;stroke-width:5.00250006;stroke-linecap:square;stroke-linejoin:round;stroke-miterlimit:10;stroke-dasharray:none;stroke-opacity:1"
           d="m 8107.5,855 h -69.45" />
        <path
           inkscape:connector-curvature="0"
           id="path4777"
           style="fill:none;stroke:#262626;stroke-width:5.00250006;stroke-linecap:square;stroke-linejoin:round;stroke-miterlimit:10;stroke-dasharray:none;stroke-opacity:1"
           d="m 8107.5,1087.5 h -69.45" />
        <path
           inkscape:connector-curvature="0"
           id="path4779"
           style="fill:none;stroke:#262626;stroke-width:5.00250006;stroke-linecap:square;stroke-linejoin:round;stroke-miterlimit:10;stroke-dasharray:none;stroke-opacity:1"
           d="m 8107.5,1320 h -69.45" />
        <g
           transform="scale(10)"
           id="g4781">
          <text
             id="text4793"
             style="font-variant:normal;font-weight:normal;font-size:9.99975014px;font-family:Helvetica;-inkscape-font-specification:Helvetica;writing-mode:lr-tb;fill:#262626;fill-opacity:1;fill-rule:nonzero;stroke:none"
             transform="matrix(1,0,0,-1,103.25,34.875)">
            <tspan
               id="tspan4783"
               sodipodi:role="line"
               y="0"
               x="0 3.3299167">-2</tspan>
            <tspan
               id="tspan4785"
               y="-23.25"
               x="3">0</tspan>
            <tspan
               id="tspan4787"
               y="-46.5"
               x="3">2</tspan>
            <tspan
               id="tspan4789"
               y="-69.75"
               x="3">4</tspan>
            <tspan
               id="tspan4791"
               y="-93"
               x="3">6</tspan>
          </text>
          <text
             id="text4799"
             style="font-variant:normal;font-weight:normal;font-size:18px;font-family:Helvetica;-inkscape-font-specification:Helvetica;writing-mode:lr-tb;fill:#262626;fill-opacity:1;fill-rule:nonzero;stroke:none"
             transform="matrix(0,1,1,0,72.5,64.875)">
            <tspan
               id="tspan4795"
               sodipodi:role="line"
               y="0"
               x="0 9 12.996 23.004 32.004002">clock</tspan>
            <tspan
               id="tspan4797"
               sodipodi:role="line"
               y="23.25"
               x="-23.25 -14.25 -4.2420001 -0.24600001 4.7579999 14.766 24.774 34.782001 39.785999 45.779999 57.785999">voltage (V)</tspan>
          </text>
        </g>
        <path
           inkscape:connector-curvature="0"
           id="path4801"
           style="fill:none;stroke:#000000;stroke-width:5.00250006;stroke-linecap:butt;stroke-linejoin:round;stroke-miterlimit:10;stroke-dasharray:none;stroke-opacity:1"
           d="m 1387.37,1171.2 h 1.8 l 0.9,9.3 0.9,-9.3 h 1.8 l 0.9,9.3 0.9,-18.6 0.9,9.3 0.89,-9.3 0.91,9.3 0.89,-9.3 0.91,9.3 h 1.79 l 0.91,9.3 0.89,-9.3 0.91,9.3 0.89,-9.3 h 1.81 l 0.89,-9.3 0.91,9.3 h 0.89 l 0.9,9.3 0.9,-9.3 h 4.5 l 0.9,-9.3 0.9,9.3 h 4.5 l 0.9,9.3 h 0.89 l 0.9,-9.3 h 1.8 l 0.9,9.3 0.9,-9.3 h 0.9 l 0.9,-9.3 0.9,9.3 0.9,-9.3 h 0.9 l 0.9,18.6 0.9,-18.6 h 0.9 l 0.9,18.6 0.89,-9.3 0.9,-9.3 0.9,9.3 h 0.9 l 0.9,9.3 0.9,-9.3 0.9,9.3 0.9,-18.6 0.9,9.3 h 8.1 l 0.9,9.3 0.89,-18.6 0.91,9.3 h 1.8 l 0.9,-9.3 0.89,9.3 h 1.8 l 0.91,9.3 0.9,-9.3 h 3.59 l 0.9,9.3 0.9,-9.3 0.9,-9.3 0.9,9.3 0.9,9.3 0.9,-9.3 h 1.8 l 0.9,9.3 h 0.9 l 0.9,-9.3 0.89,9.3 0.9,-9.3 h 0.9 l 0.9,9.3 h 0.9 l 0.9,-9.3 0.9,-9.3 0.9,18.6 0.9,-9.3 0.9,9.3 0.9,-9.3 0.9,-9.3 0.9,9.3 h 3.59 l 0.9,-9.3 0.9,9.3 h 0.9 l 0.9,-9.3 h 0.9 l 0.9,18.6 0.9,-9.3 h 1.8 l 0.9,9.3 0.9,-18.6 0.9,9.3 h 0.9 l 0.9,-9.3 h 0.89 l 0.9,9.3 0.91,-9.3 0.89,9.3 h 6.3 l 0.9,-9.3 0.91,9.3 0.89,9.3 0.9,-9.3 h 0.9 l 0.9,9.3 0.9,-9.3 h 1.8 l 0.9,9.3 0.9,-9.3 h 0.9 l 0.9,9.3 0.9,-18.6 0.9,9.3 h 2.7 l 0.89,9.3 0.9,-18.6 h 0.9 l 0.9,9.3 h 2.7 l 0.9,-9.3 0.9,9.3 h 0.9 l 0.9,-9.3 h 0.9 l 0.9,9.3 h 2.69 l 0.9,-9.3 0.9,9.3 0.9,-9.3 0.9,9.3 h 0.9 l 0.9,9.3 0.9,-9.3 0.9,-9.3 h 0.9 l 0.9,9.3 0.9,9.3 0.9,-9.3 0.9,9.3 0.9,-9.3 0.9,-9.3 0.89,-9.3 h 0.91 l 0.89,-9.3 h 1.81 l 0.89,9.3 0.91,9.3 0.89,-9.3 0.91,-9.3 h 0.9 l 0.89,18.6 h 1.8 l 0.9,-9.3 0.9,-9.3 0.9,9.3 h 2.7 l 0.9,-9.3 h 0.9 l 0.9,9.3 h 5.4 l 0.89,9.3 h 1.8 l 0.9,-9.3 h 0.9 l 0.9,9.3 0.9,-9.3 h 3.6 l 0.9,9.3 0.9,-18.6 h 0.9 l 0.9,9.3 0.89,9.3 h 0.9 l 0.9,-9.3 0.9,-9.3 0.9,18.6 0.9,-9.3 0.9,9.3 0.9,-9.3 h 0.9 l 0.9,9.3 0.9,-9.3 h 4.5 l 0.89,9.3 0.91,-9.3 0.89,9.3 h 2.7 l 0.91,-9.3 h 0.89 l 0.91,9.3 h 3.59 l 0.91,-9.3 0.89,9.3 0.9,-9.3 h 0.9 l 0.9,9.3 h 0.9 l 0.9,-9.3 0.9,-9.3 0.9,9.3 h 1.8 l 0.9,9.3 h 4.49 l 0.9,-9.3 0.9,9.3 h 0.9 l 0.9,-9.3 h 0.9 l 0.9,9.3 h 1.8 l 0.9,-9.3 h 1.8 l 0.9,9.3 0.9,-9.3 0.89,9.3 0.9,-18.6 0.9,18.6 h 0.9 l 0.9,-9.3 h 1.8 l 0.9,9.3 0.9,9.3 0.9,-9.3 0.9,-9.3 h 2.7 l 0.9,-9.3 0.9,-27.9 0.89,-55.8 0.91,-83.702 0.89,-139.5 0.9,-130.199 0.91,-83.699 0.89,9.301 h 0.91 l 0.89,9.301 h 0.9 l 0.91,-9.301 0.89,9.301 h 0.91 l 0.89,-18.602 0.9,18.602 0.9,9.296 h 0.9 l 0.9,-18.597 h 0.9 l 0.9,9.301 0.9,-9.301 h 0.9 l 0.9,9.301 h 4.5 l 0.9,-9.301 h 0.9 l 0.89,18.597 0.9,-9.296 0.9,-9.301 0.9,9.301 0.9,-9.301 0.9,18.597 0.9,-18.597 0.9,9.301 0.9,-9.301 0.9,9.301 0.9,-9.301 0.9,9.301 h 0.9 l 0.9,-9.301 0.9,27.898 0.89,-27.898 h 0.9 l 0.9,9.301 0.9,-9.301 0.9,9.301 0.9,-9.301 h 0.9 l 0.9,9.301 0.9,-9.301 h 1.8 l 0.9,9.301 h 4.5 l 0.9,-18.602 0.89,18.602 h 4.5 l 0.91,-9.301 h 1.8 l 0.9,18.597 0.89,37.204 0.91,27.898 0.89,27.898 0.9,18.602 h 0.9 l 0.9,27.898 0.9,9.301 0.9,-9.301 0.9,9.301 0.9,9.301 h 0.9 l 0.9,9.301 0.9,9.301 0.9,-9.301 0.9,18.597 h 1.79 l 0.9,9.301 0.9,9.301 h 0.9 l 0.9,9.301 0.9,-9.301 0.9,9.301 0.9,18.597 0.9,-9.296 0.9,9.296 h 2.7 l 0.9,9.301 h 0.9 l 0.89,9.301 h 0.9 l 0.9,9.301 0.9,-9.301 0.9,9.301 0.9,9.301 h 1.8 l 0.9,9.296 h 1.8 l 0.9,9.301 0.9,-9.301 0.9,9.301 0.9,9.301 h 1.79 l 0.91,-9.301 h 1.8 l 0.89,9.301 0.91,-18.602 0.9,-46.5 0.89,-74.398 0.91,-93 0.89,-65.102 0.9,-18.597 h 1.8 l 0.91,9.301 h 0.89 l 0.9,-9.301 0.9,9.301 0.9,-18.602 0.9,9.301 h 1.8 l 0.9,9.301 0.9,-9.301 0.9,-9.301 0.9,9.301 0.9,18.597 0.9,-37.199 0.9,18.602 0.9,9.301 0.89,-9.301 h 1.8 l 0.9,-9.301 0.9,18.602 0.9,-9.301 h 2.7 l 0.9,9.301 0.9,-9.301 h 1.8 l 0.9,9.301 0.9,-9.301 0.89,-9.301 0.9,9.301 0.9,9.301 0.9,-9.301 0.9,-9.301 0.9,9.301 h 0.9 l 0.9,9.301 0.9,-9.301 h 3.6 l 0.9,9.301 0.9,-9.301 0.89,-9.301 0.91,9.301 0.89,9.301 0.91,-9.301 h 2.7 l 0.89,9.301 0.91,9.296 0.9,-9.296 0.89,-18.602 0.91,18.602 h 0.89 l 0.91,-9.301 0.89,9.301 h 3.6 l 0.9,37.199 0.9,37.199 0.9,18.602 0.9,18.597 0.9,18.602 0.9,18.597 0.9,-9.296 0.9,9.296 h 1.8 l 0.89,9.301 0.9,27.903 h 0.9 l 0.9,-9.301 0.9,9.301 0.9,9.296 0.9,9.301 0.9,-18.597 0.9,18.597 0.9,9.301 h 0.9 l 0.9,9.301 h 0.9 l 0.9,9.301 h 1.79 l 0.9,9.296 0.9,-9.296 h 0.9 l 0.9,18.597 h 1.8 l 0.9,9.301 h 0.9 l 0.9,9.301 0.9,9.301 h 2.7 l 0.9,9.296 0.89,-9.296 0.91,9.296 h 1.8 l 0.9,9.301 h 0.89 l 0.91,9.301 0.89,-9.301 h 0.91 l 0.9,9.301 0.89,-9.301 0.91,9.301 0.89,-18.602 0.91,-37.199 0.9,-83.699 0.89,-93 0.9,-74.398 0.9,-18.602 0.9,9.301 0.9,9.301 h 1.8 l 0.9,-9.301 h 1.8 l 0.9,-18.602 0.9,27.903 0.9,-9.301 h 0.9 l 0.9,-9.301 0.89,9.301 h 0.9 l 0.9,9.301 0.9,-18.602 0.9,9.301 h 0.9 l 0.9,-9.301 0.9,9.301 0.9,9.301 h 0.9 l 0.9,-18.602 0.9,9.301 h 0.9 l 0.9,9.301 h 1.79 l 0.9,9.296 0.9,-9.296 0.9,-9.301 0.9,-18.602 0.9,9.301 0.9,18.602 h 0.9 l 0.9,-9.301 h 1.8 l 0.9,9.301 0.9,-9.301 h 0.9 l 0.89,-9.301 0.91,18.602 0.89,-9.301 0.9,9.301 0.91,-9.301 h 3.59 l 0.91,-9.301 0.89,9.301 0.91,9.301 h 0.89 l 0.9,-9.301 h 1.8 l 0.9,9.301 0.9,-9.301 h 1.8 l 0.9,9.301 0.9,-9.301 h 1.8 l 0.9,9.301 h 0.9 l 0.9,46.5 0.9,27.898 0.9,9.301 0.9,18.597 0.89,37.204 0.9,-9.301 0.9,9.301 0.9,9.296 0.9,9.301 0.9,9.301 0.9,-9.301 0.9,18.602 h 1.8 l 0.9,9.301 h 0.9 l 0.9,9.296 h 0.9 l 0.9,9.301 0.89,9.301 0.9,9.301 0.9,-9.301 h 0.9 l 0.9,18.602 h 1.8 l 0.9,9.296 h 0.9 l 0.9,9.301 0.9,-9.301 0.9,18.602 0.9,-9.301 0.9,9.301 0.9,9.301 0.9,-9.301 0.9,18.602 0.89,-9.301 0.91,9.301 h 2.7 l 0.89,9.296 0.91,9.301 h 2.7 l 0.89,9.301 0.91,-18.602 0.89,9.301 h 0.9 l 0.9,-9.301 0.9,9.301 h 0.9 l 0.9,-46.5 0.9,-74.398 0.9,-102.301 0.9,-74.398 0.9,-27.903 0.9,18.602 h 3.6 l 0.89,9.301 0.9,-9.301 0.9,9.301 h 1.8 l 0.9,-9.301 h 1.8 l 0.9,9.301 h 1.8 l 0.9,-9.301 h 1.8 l 0.9,-9.301 0.89,9.301 0.9,-9.301 0.9,9.301 h 0.9 l 0.9,9.301 0.9,-9.301 0.9,9.301 0.9,-9.301 0.9,9.301 0.9,-18.602 h 0.9 l 0.9,9.301 h 2.7 l 0.89,18.597 0.91,-18.597 h 0.89 l 0.91,-9.301 0.89,9.301 h 0.91 l 0.9,9.301 0.89,-9.301 h 0.91 l 0.89,-9.301 0.91,9.301 0.9,-9.301 0.89,9.301 0.91,-9.301 0.89,9.301 0.9,9.301 0.9,-9.301 0.9,-9.301 0.9,9.301 h 1.8 l 0.9,9.301 0.9,-18.602 0.9,9.301 0.9,9.301 0.9,-9.301 0.9,-9.301 0.9,9.301 0.9,-9.301 0.9,18.602 0.89,-9.301 0.9,9.301 0.9,27.898 0.9,46.5 0.9,18.602 0.9,18.597 0.9,18.602 0.9,18.597 0.9,-9.296 0.9,18.597 0.9,-9.301 0.9,18.602 0.9,-9.301 0.9,18.602 0.89,-9.301 0.9,18.602 h 0.9 l 0.9,9.296 0.9,9.301 h 1.8 l 0.9,9.301 h 1.8 l 0.9,9.301 h 1.8 l 0.9,18.597 0.9,9.301 0.9,-18.597 0.9,9.296 0.89,9.301 h 1.81 l 0.89,9.301 h 1.8 l 0.91,9.301 h 2.7 l 0.89,27.898 0.91,-9.301 0.9,-9.296 0.89,9.296 h 0.9 l 0.9,9.301 h 2.7 l 0.9,-9.301 h 0.9 l 0.9,9.301 h 0.9 l 0.9,-27.898 0.9,-27.903 0.9,-74.398 0.9,-93 0.9,-55.801 0.89,-37.199 h 0.9 l 0.9,9.301 h 1.8 l 0.9,-9.301 0.9,18.602 0.9,-9.301 0.9,9.301 0.9,-9.301 h 1.8 l 0.9,9.301 0.9,-9.301 h 1.79 l 0.9,9.301 0.9,-9.301 0.9,-9.301 0.9,9.301 0.9,9.301 0.9,-9.301 h 1.8 l 0.9,9.301 0.9,-9.301 h 0.9 l 0.9,9.301 0.9,-9.301 h 0.9 l 0.9,-9.301 0.89,9.301 0.91,9.301 0.9,-18.602 0.89,18.602 0.91,-9.301 h 3.59 l 0.91,9.301 h 0.89 l 0.91,-18.602 0.9,18.602 0.89,-9.301 h 4.5 l 0.9,-9.301 0.9,9.301 0.9,-9.301 0.9,9.301 0.9,-9.301 h 0.9 l 0.9,18.602 h 0.9 l 0.9,-18.602 0.9,9.301 0.89,9.301 0.9,-9.301 h 0.9 l 0.9,9.301 0.9,-9.301 h 0.9 l 0.9,9.301 h 0.9 l 0.9,46.5 0.9,18.597 0.9,18.602 0.9,27.898 0.9,18.602 0.9,9.301 0.89,-9.301 0.9,18.597 0.9,9.301 h 1.8 l 0.9,9.301 0.9,9.301 h 0.9 l 0.9,9.301 0.9,9.296 0.9,-9.296 0.9,9.296 h 0.9 l 0.9,18.602 0.9,-9.301 0.9,18.602 h 2.7 l 0.89,9.301 h 0.91 l 0.89,9.296 0.9,-9.296 0.91,9.296 0.89,18.602 0.91,-9.301 h 0.89 l 0.9,9.301 h 0.91 l 0.89,9.301 h 0.9 l 0.9,18.597 0.9,-18.597 h 0.9 l 0.9,18.597 h 3.6 l 0.9,9.301 h 3.6 l 0.9,9.301 h 0.89 l 0.9,-27.898 0.9,-37.204 0.9,-65.097 0.9,-102.301 0.9,-65.102 0.9,-18.597 h 2.7 l 0.9,-9.301 0.9,9.301 0.9,-9.301 0.9,9.301 0.9,9.301 0.89,-18.602 0.9,9.301 h 4.5 l 0.9,-9.301 0.9,9.301 h 1.8 l 0.9,9.301 0.9,-18.602 0.9,18.602 h 0.9 l 0.9,-9.301 h 0.89 l 0.91,-9.301 0.89,9.301 0.91,-9.301 0.9,9.301 h 3.6 l 0.9,9.301 0.89,-9.301 h 0.91 l 0.89,-9.301 0.91,9.301 0.89,9.301 0.9,-9.301 0.9,9.301 h 1.8 l 0.9,-9.301 0.9,-9.301 0.9,18.602 h 0.9 l 0.9,-9.301 h 5.39 l 0.9,9.301 h 0.9 l 0.9,9.296 0.9,-27.898 h 0.9 l 0.9,18.602 0.9,-18.602 0.9,9.301 h 3.6 l 0.9,9.301 0.89,27.898 0.9,37.199 0.9,18.602 0.9,37.199 h 0.9 l 0.9,9.301 0.9,18.597 0.9,9.301 h 2.7 l 0.9,18.602 h 1.8 l 0.9,9.301 0.9,18.597 0.89,-18.597 0.91,9.296 0.89,9.301 h 0.91 l 0.9,9.301 0.89,18.602 0.91,-9.301 h 1.8 l 0.9,9.301 0.89,9.296 h 1.8 l 0.9,9.301 0.9,9.301 h 3.6 l 0.9,9.301 h 0.9 l 0.9,9.301 0.9,-9.301 0.9,18.597 h 0.9 l 0.9,9.301 0.9,-9.301 h 0.9 l 0.9,9.301 h 3.59 l 0.9,9.301 0.9,-9.301 h 0.9 l 0.9,-18.597 0.9,-37.204 0.9,-65.097 0.9,-93 0.9,-83.699 0.9,-27.903 0.9,18.602 h 2.69 l 0.9,9.301 0.9,-9.301 h 0.9 l 0.9,-9.301 0.9,9.301 h 5.4 l 0.9,18.597 0.9,-18.597 0.89,-9.301 0.91,9.301 0.9,9.301 0.89,-9.301 h 2.71 l 0.9,9.301 0.89,-9.301 0.91,18.597 0.89,-18.597 0.91,18.597 0.9,-9.296 0.89,-18.602 0.9,-9.301 0.9,9.301 0.9,18.602 h 1.8 l 0.9,-9.301 h 0.9 l 0.9,9.301 0.9,-9.301 0.9,-9.301 0.9,9.301 h 3.6 l 0.89,9.301 0.9,-9.301 h 0.9 l 0.9,-9.301 0.9,18.602 h 0.9 l 0.9,-9.301 0.9,9.301 h 1.8 l 0.9,-9.301 h 0.9 l 0.9,9.301 0.9,-18.602 0.9,18.602 h 0.89 l 0.9,-9.301 h 2.7 l 0.9,18.597 0.9,27.903 0.9,27.898 0.9,18.602 0.9,37.199 0.9,9.301 0.9,9.301 0.9,9.296 h 0.9 l 0.9,9.301 h 0.89 l 0.91,9.301 0.9,9.301 0.89,-9.301 0.91,18.602 h 0.89 l 0.91,9.296 0.9,-9.296 0.89,9.296 0.91,9.301 h 0.89 l 0.91,9.301 h 0.9 l 0.89,9.301 h 0.91 l 0.89,9.301 h 0.9 l 0.9,9.296 0.9,9.301 h 0.9 l 0.9,-9.301 0.9,27.903 0.9,-18.602 0.9,9.301 h 1.8 l 0.9,9.301 h 0.9 l 0.9,9.301 h 2.69 l 0.9,9.296 h 1.8 l 0.9,9.301 h 1.8 l 0.9,9.301 0.9,-9.301 h 1.8 l 0.9,9.301 0.9,-27.898 0.89,-27.903 0.9,-83.699 0.9,-74.398 0.9,-74.403 0.9,-46.5 0.9,9.301 0.9,9.301 0.9,9.301 h 0.9 l 0.9,-9.301 h 0.9 l 0.9,-9.301 0.9,18.602 h 1.8 l 0.89,-9.301 h 1.81 l 0.89,-9.301 0.91,9.301 h 5.39 l 0.9,9.301 0.91,-9.301 h 2.69 l 0.9,9.301 0.9,-9.301 h 0.9 l 0.9,9.301 h 0.9 l 0.9,-9.301 h 1.8 l 0.9,9.301 0.9,-9.301 h 1.8 l 0.9,-9.301 0.9,9.301 0.89,9.301 0.9,-9.301 h 1.8 l 0.9,9.301 0.9,-9.301 0.9,9.301 0.9,-9.301 h 2.7 l 0.9,9.301 0.9,-9.301 0.9,-9.301 0.9,27.898 0.89,-18.597 h 1.8 l 0.9,-9.301 0.9,18.602 0.9,-9.301 h 1.8 l 0.9,9.301 h 0.9 l 0.9,-9.301 0.9,9.301 0.9,37.199 0.9,46.5 0.9,18.597 0.89,9.301 0.91,18.602 0.89,9.301 0.91,9.296 0.9,9.301 h 0.89 l 0.91,9.301 0.89,9.301 h 1.81 l 0.89,9.301 0.91,-9.301 0.89,27.898 h 0.91 l 0.9,-9.301 0.89,9.301 0.9,9.301 h 0.9 l 0.9,9.301 0.9,9.301 h 1.8 l 0.9,9.296 h 1.8 l 0.9,9.301 h 2.7 l 0.89,9.301 h 0.9 l 0.9,9.301 h 0.9 l 0.9,9.301 h 1.8 l 0.9,9.296 0.9,-9.296 0.9,18.597 h 3.6 l 0.9,9.301 0.89,-9.301 0.9,9.301 0.9,-18.602 0.9,9.301 h 0.9 l 0.9,-9.301 0.9,-37.199 0.9,-65.097 0.9,-120.903 0.9,-55.801 0.9,-18.597 h 1.8 l 0.9,9.301 0.9,-9.301 0.89,9.301 h 1.8 l 0.91,-18.602 0.9,18.602 0.89,-9.301 h 0.91 l 0.89,-9.301 0.91,9.301 0.9,9.301 0.89,-9.301 0.91,-9.301 h 0.89 l 0.9,18.602 0.91,-9.301 0.89,9.301 0.9,-9.301 h 1.8 l 0.9,-9.301 0.9,9.301 h 7.2 l 0.9,9.301 0.89,-9.301 h 0.9 l 0.9,9.301 h 0.9 l 0.9,-9.301 h 2.7 l 0.9,9.301 0.9,-9.301 h 0.9 l 0.9,9.301 0.9,-18.602 0.9,18.602 0.89,-9.301 h 0.9 l 0.9,9.301 0.9,-9.301 h 1.8 l 0.9,9.301 h 1.8 l 0.9,-9.301 h 0.9 l 0.9,9.301 0.9,-9.301 0.9,-9.301 0.9,9.301 h 0.89 l 0.91,-9.301 0.9,9.301 0.89,18.597 0.91,18.602 0.89,37.199 0.91,27.903 0.9,27.898 0.89,18.602 h 1.8 l 0.91,9.296 h 0.9 l 0.89,9.301 0.91,9.301 h 0.89 l 0.9,9.301 0.9,18.597 0.9,-9.296 0.9,18.597 0.9,-18.597 0.9,18.597 0.9,9.301 0.9,-9.301 h 0.9 l 0.9,18.602 h 1.8 l 0.9,9.301 h 1.79 l 0.9,27.898 0.9,-9.301 h 0.9 l 0.9,9.301 0.9,-9.301 0.9,18.602 h 2.7 l 0.9,9.301 h 0.9 l 0.9,-9.301 0.9,9.301 h 0.9 l 0.89,9.296 0.9,9.301 h 2.7 l 0.9,9.301 0.9,-9.301 h 1.8 l 0.9,9.301 h 0.9 l 0.9,-9.301 0.9,-46.5 0.9,-74.398 0.9,-102.301 0.9,-65.102 0.9,-27.898 h 0.89 l 0.91,9.301 h 0.89 l 0.91,-9.301 0.9,9.301 0.89,-9.301 0.91,9.301 0.89,9.301 0.91,-9.301 h 4.49 l 0.9,-18.602 0.9,18.602 h 0.9 l 0.9,9.301 0.9,-9.301 0.9,-9.301 0.9,9.301 h 2.7 l 0.9,-9.301 0.9,9.301 h 0.9 l 0.9,9.301 0.89,-18.602 0.9,18.602 h 0.9 l 0.9,9.296 0.9,-9.296 h 0.9 l 0.9,9.296 0.9,-18.597 0.9,-9.301 0.9,9.301 h 1.8 l 0.9,9.301 0.9,-9.301 h 1.79 l 0.9,9.301 h 0.9 l 0.9,-9.301 0.9,9.301 h 2.7 l 0.9,-9.301 h 0.9 l 0.9,-9.301 0.9,18.602 h 0.9 l 0.9,-9.301 h 1.8 l 0.89,9.301 0.91,-9.301 h 0.89 l 0.9,9.301 h 1.8 l 0.91,-9.301 0.89,9.301 0.9,27.898 0.91,46.5 0.89,18.602 0.91,27.898 h 0.89 l 0.9,18.602 h 0.9 l 0.9,9.296 0.9,9.301 h 0.9 l 0.9,9.301 h 0.9 l 0.9,9.301 h 0.9 l 0.9,18.597 h 0.9 l 0.9,9.301 h 0.9 l 0.9,-9.301 0.9,9.301 0.89,18.602 0.9,-9.301 h 0.9 l 0.9,9.301 0.9,9.301 0.9,18.597 0.9,-9.301 h 0.9 l 0.9,9.301 h 2.7 l 0.9,9.301 h 0.9 l 0.9,9.301 0.89,9.301 0.9,-9.301 h 0.9 l 0.9,9.301 0.9,9.296 h 0.9 l 0.9,-9.296 0.9,9.296 0.9,9.301 h 1.8" />
        <path
           inkscape:connector-curvature="0"
           id="path4803"
           style="fill:none;stroke:#ff00ff;stroke-width:5.00250006;stroke-linecap:butt;stroke-linejoin:round;stroke-miterlimit:10;stroke-dasharray:none;stroke-opacity:1"
           d="m 3160.27,1161.9 4.5,9.3 h 9 l 4.5,9.3 4.5,-18.6 4.49,9.3 h 22.49 l 4.5,9.3 4.5,-18.6 4.5,9.3 4.49,-9.3 4.5,9.3 h 4.5 l 4.49,-9.3 4.5,9.3 4.5,-9.3 4.49,9.3 h 4.5 l 4.5,9.3 h 4.49 l 4.5,-9.3 h 4.5 l 4.5,9.3 4.5,-9.3 h 4.5 l 4.49,9.3 4.5,-9.3 h 4.5 l 4.49,9.3 4.5,-18.6 h 4.5 l 4.49,18.6 4.5,-9.3 4.5,-9.3 4.5,9.3 4.5,-9.3 h 8.99 l 4.5,9.3 4.5,-18.6 h 4.49 l 4.5,-9.3 4.5,9.3 h 26.99 l 4.49,-9.3 4.5,18.6 h 4.5 l 4.49,-9.3 h 4.5 l 4.5,-9.3 4.5,9.3 h 4.5 l 4.5,9.3 4.49,-9.3 4.5,9.3 4.5,-9.3 h 4.49 l 4.5,9.3 4.5,-9.3 h 13.49 l 4.49,9.3 4.5,-9.3 h 4.5 l 4.5,9.3 h 4.5 l 4.49,9.3 4.5,-9.3 h 4.5 l 4.49,9.3 4.5,-18.6 4.5,9.3 4.5,9.3 4.5,-9.3 4.5,-9.3 4.49,9.3 h 26.98 l 4.5,9.3 h 9 l 4.5,-9.3 h 4.5 l 4.49,-9.3 4.5,9.3 4.5,9.3 4.49,-9.3 4.5,9.3 h 4.5 l 4.49,-9.3 4.5,-9.3 4.5,-260.401 4.49,-260.398 h 4.5 l 4.5,9.301 4.5,-9.301 4.5,9.301 4.5,-9.301 4.49,18.597 4.5,-9.296 4.5,-9.301 h 4.49 l 4.5,9.301 4.5,-9.301 4.5,9.301 4.5,-9.301 h 4.5 l 4.49,-9.301 4.5,9.301 h 4.5 l 4.49,9.301 4.5,-9.301 4.5,9.301 4.49,-9.301 4.5,9.301 4.5,-18.602 4.5,9.301 4.5,9.301 4.5,-9.301 4.49,9.301 4.5,-9.301 h 4.5 l 4.49,-9.301 4.5,9.301 4.5,9.301 4.49,-9.301 h 4.5 l 4.5,9.301 4.49,-9.301 4.5,9.301 4.5,-9.301 4.5,9.301 4.5,-9.301 h 8.99 l 4.5,-9.301 4.5,9.301 h 4.49 l 4.5,9.301 4.5,102.296 4.5,55.801 4.5,27.903 4.5,18.597 4.49,18.602 4.5,18.597 4.5,27.903 4.49,9.301 4.5,18.597 4.5,9.301 4.49,9.301 4.5,9.301 4.5,9.296 h 4.5 l 4.5,9.301 h 8.99 l 4.5,18.601 h 13.49 l 4.49,18.6 h 4.5 l 4.5,9.3 h 8.99 l 4.5,-9.3 4.5,18.6 4.5,-9.3 4.5,18.6 4.49,-18.6 4.5,9.3 h 8.99 l 4.5,9.3 4.5,9.3 4.5,-9.3 h 9 l 4.49,9.3 h 4.5 l 4.5,9.3 h 13.49 l 4.49,9.3 h 9 l 4.5,9.3 4.5,-9.3 4.5,9.3 4.49,-9.3 4.5,-260.399 4.5,-186 4.49,-9.301 4.5,9.301 4.5,9.301 4.49,-18.602 4.5,18.602 4.5,-9.301 h 17.99 l 4.5,9.301 4.5,-9.301 h 31.48 l 4.5,18.597 4.5,-18.597 h 4.49 l 4.5,9.301 4.5,-9.301 4.49,-9.301 h 4.5 l 4.5,9.301 h 17.99 l 4.5,-9.301 4.5,9.301 h 8.99 l 4.5,-9.301 h 4.49 l 4.5,18.602 4.5,-18.602 4.49,18.602 h 4.5 l 4.5,-9.301 4.49,9.301 4.5,-18.602 4.5,9.301 h 4.5 l 4.5,120.898 4.5,55.801 4.49,9.301 4.5,27.898 4.5,18.602 4.49,27.898 h 4.5 l 4.5,18.602 4.49,27.898 4.5,9.301 4.51,9.301 4.49,9.301 4.5,9.296 h 4.5 l 4.49,18.602 h 8.99 l 4.5,9.3 4.5,-9.3 4.5,18.6 4.5,9.3 h 4.5 l 4.5,-9.3 4.49,18.6 4.5,-9.3 h 8.99 l 4.5,9.3 4.49,9.3 h 13.49 l 4.5,9.3 4.5,-9.3 4.5,9.3 h 13.49 l 4.5,9.3 4.5,9.3 h 4.49 l 4.5,-9.3 h 4.5 l 4.49,9.3 4.5,18.6 4.5,-9.3 4.5,-9.3 4.5,9.3 h 4.5 l 4.49,9.3 h 4.5 l 4.5,-9.3 4.49,-251.098 4.5,-195.301 h 4.5 l 4.5,18.597 4.5,-18.597 h 4.5 l 4.49,9.301 4.5,-9.301 4.5,9.301 4.49,-9.301 4.5,9.301 4.5,-9.301 4.49,-9.301 4.5,18.602 4.5,-9.301 4.49,9.301 4.5,-9.301 4.5,9.301 h 4.5 l 4.5,-9.301 4.5,9.301 h 4.49 l 4.5,-9.301 4.5,-9.301 4.49,9.301 4.5,-9.301 4.5,9.301 4.49,9.301 h 4.5 l 4.5,-18.602 4.5,9.301 h 4.5 l 4.5,-9.301 4.49,18.602 4.5,-18.602 4.5,9.301 h 8.99 l 4.5,9.301 4.5,-9.301 h 22.49 l 4.49,18.597 4.5,-9.296 4.5,-9.301 4.49,120.898 4.5,46.5 4.5,9.301 4.5,27.898 4.5,27.903 4.5,27.898 4.49,27.903 h 4.5 l 4.5,18.597 4.49,9.301 4.5,9.301 h 4.49 l 4.5,18.597 h 4.5 l 4.5,9.301 h 4.49 l 4.5,9.301 4.5,9.3 4.5,9.3 h 13.49 l 4.5,9.3 h 8.99 l 4.5,-9.3 4.5,18.6 4.5,9.3 h 4.5 l 4.49,-9.3 4.5,-9.3 4.5,18.6 4.49,9.3 4.5,-9.3 4.5,9.3 4.49,9.3 h 4.5 l 4.5,9.3 h 4.5 l 4.5,-18.6 4.5,18.6 h 4.49 l 4.5,-9.3 h 4.5 l 4.49,18.6 4.5,-9.3 h 4.5 l 4.49,9.3 h 4.5 l 4.5,9.3 4.49,-9.3 h 4.5 l 4.5,-251.098 4.5,-204.602 4.5,18.602 4.5,-9.301 4.49,9.301 4.5,-9.301 4.5,9.301 h 4.49 l 4.5,-9.301 h 40.48 l 4.5,9.301 h 4.49 l 4.5,-9.301 h 4.5 l 4.5,9.301 4.5,-18.602 4.5,9.301 4.49,-9.301 4.5,9.301 h 4.5 l 4.49,-9.301 4.5,9.301 4.5,-9.301 4.49,9.301 h 9 l 4.49,9.301 4.5,-9.301 4.5,9.301 h 4.5 l 4.5,-18.602 4.5,9.301 4.49,9.301 4.5,-9.301 h 26.99 l 4.5,120.898 4.49,37.199 4.5,18.602 4.5,37.199 4.49,27.903 4.5,18.597 4.5,18.602 4.49,18.597 h 4.5 l 4.5,9.301 4.5,27.903 h 4.5 l 4.49,18.597 4.5,-9.301 h 4.5 l 4.49,18.602 h 4.5 l 4.5,9.3 h 4.49 l 4.5,9.3 4.5,9.3 4.49,-9.3 4.5,9.3 4.5,-9.3 h 9 l 4.5,18.6 h 8.99 l 4.5,9.3 h 8.99 l 4.5,9.3 h 9 l 4.5,9.3 h 8.99 l 4.5,-9.3 h 4.49 l 4.5,9.3 4.5,9.3 h 4.49 l 4.5,9.3 4.5,-9.3 4.5,9.3 4.5,-9.3 4.5,9.3 h 13.49 l 4.49,-9.3 4.5,-232.502 4.5,-195.296 4.49,-9.301 h 9 l 4.49,-9.301 4.5,18.602 4.5,-18.602 4.5,9.301 4.5,9.301 4.5,-9.301 h 17.98 l 4.5,9.301 4.5,-9.301 4.5,9.301 4.5,-9.301 4.49,9.301 4.5,-18.602 4.5,9.301 h 4.5 l 4.49,9.301 4.5,-27.903 4.5,18.602 h 13.49 l 4.5,9.301 4.5,-9.301 4.5,9.301 4.49,-9.301 4.5,-9.301 h 4.5 l 4.49,9.301 h 4.5 l 4.5,-9.301 4.49,9.301 4.5,9.301 h 8.99 l 4.5,-18.602 4.5,18.602 4.5,-9.301 4.5,-9.301 4.5,9.301 4.49,-9.301 4.5,130.199 4.5,37.199 4.49,37.204 4.5,18.597 4.5,27.903 4.49,9.296 4.51,9.301 4.49,27.903 h 4.5 l 4.5,27.898 4.5,9.301 4.49,9.301 4.5,9.296 h 4.5 l 4.49,9.301 h 4.5 l 4.5,18.601 h 4.5 l 4.5,9.3 h 4.49 l 4.5,-9.3 4.5,9.3 4.49,9.3 4.5,-9.3 4.5,9.3 h 13.49 l 4.49,9.3 h 4.5 l 4.5,9.3 h 4.5 l 4.5,-9.3 4.5,9.3 4.49,9.3 h 4.5 l 4.5,9.3 4.49,-9.3 h 9 l 4.49,9.3 4.5,9.3 h 9 l 4.5,9.3 h 4.5 l 4.49,-9.3 4.5,9.3 4.5,9.3 4.49,-9.3 4.5,9.3 4.5,-18.6 4.5,-241.798 4.5,-204.602 4.5,18.602 4.49,-9.301 4.5,9.301 4.5,-9.301 h 4.49 l 4.5,9.301 4.5,-9.301 h 13.49 l 4.49,9.301 4.5,-9.301 h 9 l 4.5,9.301 h 4.5 l 4.49,-9.301 4.5,-9.301 4.5,9.301 h 13.49 l 4.49,-9.301 4.5,18.602 4.5,-18.602 h 9 l 4.5,9.301 h 13.49 l 4.49,9.301 4.5,-9.301 h 13.5 l 4.5,9.301 4.49,-9.301 4.5,9.301 4.5,-9.301 h 17.98 l 4.5,-18.602 4.5,18.602 4.5,130.199 4.5,37.199 4.5,18.602 4.49,27.898 4.5,27.903 4.5,9.296 4.49,18.602 4.5,18.602 4.5,9.296 4.49,9.301 4.5,9.301 4.49,18.602 4.5,9.296 h 4.5 l 4.5,9.301 4.5,9.301 4.5,9.3 h 8.99 l 4.5,9.3 4.49,9.3 4.5,-9.3 h 4.5 l 4.5,9.3 h 13.49 l 4.5,9.3 4.5,-9.3 4.49,18.6 h 4.5 l 4.5,-9.3 4.49,18.6 4.5,-9.3 4.5,18.6 h 4.5 l 4.5,-9.3 h 4.5 l 4.49,9.3 h 4.5 l 4.5,9.3 h 4.49 l 4.5,9.3 4.5,-9.3 h 4.49 l 4.5,9.3 H 6322 l 4.5,9.3 4.5,-18.6 4.5,-251.099 4.49,-176.699 4.5,9.296 4.5,-18.597 4.49,9.301 4.5,-9.301 h 4.5 l 4.5,9.301 4.5,-18.602 h 4.5 l 4.49,18.602 h 4.5 l 4.5,-18.602 4.49,18.602 h 4.5 l 4.5,-9.301 h 4.49 l 4.5,9.301 h 9 l 4.5,-9.301 h 13.49 l 4.5,9.301 4.49,-18.602 4.5,9.301 h 4.5 l 4.49,-9.301 4.5,9.301 h 8.99 l 4.5,-9.301 4.5,18.602 h 4.5 l 4.5,-9.301 h 4.5 l 4.49,9.301 h 4.5 l 4.5,-18.602 4.49,9.301 h 9 l 4.5,9.301 4.5,-18.602 4.5,9.301 4.49,-9.301 4.5,9.301 4.5,130.199 4.49,37.199 4.5,27.903 4.5,9.296 4.49,18.602 4.5,27.898 4.5,18.602 4.5,18.602 4.5,9.296 4.5,18.602 4.49,9.301 4.5,18.597 4.49,-9.296 4.5,9.296 4.5,9.301 4.49,9.301 4.5,9.3 h 4.5 l 4.49,-9.3 4.5,18.6 h 13.5 l 4.5,9.3 h 13.49 l 4.49,9.3 h 4.5 l 4.5,-9.3 4.5,18.6 4.5,9.3 h 22.48 l 4.5,9.3 h 4.5 l 4.49,-9.3 4.5,9.3 h 9 l 4.5,9.3 h 4.5 l 4.49,9.3 4.5,-9.3 4.5,9.3 4.49,9.3 h 9 l 4.49,-27.9 4.5,-223.202 4.5,-204.597 h 4.49 l 4.5,-9.301 4.5,18.602 h 4.5 l 4.5,-9.301 4.5,-9.301 4.49,9.301 h 13.49 l 4.5,9.301 4.5,-9.301 4.5,9.301 4.49,-9.301 h 18 l 4.49,9.301 4.5,-18.602 4.5,18.602 4.49,-9.301 h 4.5 l 4.5,-9.301 4.5,9.301 h 9 l 4.49,9.301 4.5,-9.301 4.5,-9.301 4.49,18.602 h 4.5 l 4.5,-18.602 4.49,18.602 4.5,-9.301 h 8.99 l 4.5,-9.301 4.5,27.898 4.5,-18.597 h 22.49 l 4.49,9.301 4.5,111.597 4.5,37.199 4.5,46.5 4.49,9.301 4.51,18.602 4.49,18.597 4.5,18.602 4.49,18.602 4.5,9.296 4.5,18.602 4.49,9.301 4.5,9.301 4.5,9.296 4.5,18.602 h 13.49 l 4.5,9.3 h 8.99 l 4.5,9.3 h 8.99 l 4.5,9.3 h 17.99 l 4.5,9.3 h 4.5 l 4.5,9.3 4.49,9.3 4.5,-9.3 4.5,9.3 4.49,-9.3 4.5,9.3 4.5,-9.3 4.49,9.3 4.51,9.3 h 8.99 l 4.5,9.3 4.5,-9.3 4.49,9.3 h 4.5 l 4.5,9.3 h 17.99 l 4.5,-9.3 4.5,9.3 4.49,-241.802 4.5,-195.296 4.5,-9.301 4.49,-9.301 4.5,9.301 h 8.99 l 4.5,9.301 4.5,-9.301 h 8.99 l 4.5,9.301 h 9 l 4.5,-9.301 4.49,9.301 4.5,-9.301 h 31.48 l 4.5,-9.301 4.5,9.301 h 13.49 l 4.5,9.301 4.49,-18.602 4.5,9.301 h 4.5 l 4.5,-9.301 4.5,18.602 h 4.5 l 4.49,-9.301 4.5,9.301 4.5,-9.301 4.49,9.301 4.5,-9.301 h 4.5 l 4.49,9.301 4.5,-18.602 4.5,9.301 h 9 l 4.49,9.301 4.5,111.597 4.5,46.5 4.49,27.903 4.5,18.597 4.5,9.301 4.5,37.199 4.49,18.602 4.5,9.301 4.49,18.597 4.5,9.301 4.5,18.602 4.5,-9.301 4.5,18.597 4.5,9.301 4.49,9.301 4.5,9.3 4.5,-9.3 4.49,18.6 4.5,-9.3 h 9 l 4.5,18.6 h 4.5 l 4.49,-9.3 4.5,9.3 4.5,-9.3 4.49,9.3 4.5,9.3 h 4.5 l 4.49,9.3 h 4.5 l 4.5,9.3 h 22.49 l 4.5,9.3 h 17.98 l 4.5,18.6 4.5,-9.3 h 8.99 l 4.5,9.3 h 4.5 l 4.5,18.6 4.5,-27.9 4.49,18.6 4.5,-9.3 4.5,-251.098 4.49,-195.301 h 4.5 l 4.5,-9.301 4.5,9.301 4.5,9.301 h 13.49 l 4.5,-9.301 4.49,9.301 4.5,-9.301 4.5,9.301 4.49,-18.602 4.5,18.602 4.5,-9.301 h 4.5 l 4.5,-9.301 4.5,9.301 h 4.49 l 4.5,9.301 4.5,-9.301 h 13.49 l 4.49,9.301 4.5,-9.301 4.5,9.301 h 4.49 l 4.5,-18.602 4.5,9.301 4.5,9.301 4.5,-9.301 4.5,9.301 4.49,-9.301 4.5,9.301 4.5,-9.301 4.49,-9.301 4.5,18.602 h 4.5 l 4.5,-9.301 h 13.49 l 4.5,9.301" />
        <path
           inkscape:connector-curvature="0"
           id="path4805"
           style="fill:#ffffff;fill-opacity:1;fill-rule:nonzero;stroke:none"
           d="m 6900,1155 h 1162.5 v 277.5 H 6900 Z" />
        <g
           transform="scale(10)"
           id="g4807">
          <text
             id="text4811"
             style="font-variant:normal;font-weight:normal;font-size:9px;font-family:Helvetica;-inkscape-font-specification:Helvetica;writing-mode:lr-tb;fill:#000000;fill-opacity:1;fill-rule:nonzero;stroke:none"
             transform="matrix(1,0,0,-1,725.25,132)">
            <tspan
               id="tspan4809"
               sodipodi:role="line"
               y="0"
               x="0 5.0040002 10.008">20k</tspan>
          </text>
        </g>
        <path
           inkscape:connector-curvature="0"
           id="path4813"
           style="fill:#000000;fill-opacity:1;fill-rule:nonzero;stroke:none"
           d="m 7409.41,1320 -2.93,15 h 2.58 c 0.32,-1.8 0.61,-3.36 0.88,-4.69 0.27,-1.33 0.63,-2.26 1.06,-2.81 0.43,-0.55 1.11,-0.9 2.05,-1.06 0.93,-0.15 2.5,-0.23 4.68,-0.23 h 5.52 c -0.95,3.36 -3.15,7.77 -6.63,13.24 -3.47,5.48 -5.85,9.46 -7.14,11.96 -1.3,2.5 -1.94,5.7 -1.94,9.61 0,4.53 1.35,8.49 4.04,11.89 2.7,3.4 6.17,6.02 10.44,7.86 4.25,1.83 8.57,2.75 12.94,2.75 4.38,0 8.69,-0.92 12.95,-2.75 4.26,-1.84 7.73,-4.48 10.43,-7.92 2.69,-3.44 4.04,-7.38 4.04,-11.83 0,-3.05 -0.56,-5.93 -1.7,-8.62 -1.13,-2.7 -2.55,-5.39 -4.27,-8.08 -1.72,-2.7 -3.58,-5.71 -5.57,-9.03 -1.99,-3.32 -3.38,-6.34 -4.16,-9.08 h 5.51 c 2.19,0 3.77,0.08 4.74,0.23 0.98,0.16 1.66,0.51 2.05,1.06 0.39,0.55 0.73,1.48 1,2.81 0.27,1.33 0.57,2.89 0.88,4.69 h 2.58 l -2.94,-15 h -15.93 c -0.63,0 -0.94,0.39 -0.94,1.17 0,3.05 0.37,6.04 1.12,8.97 0.74,2.93 1.85,6.48 3.34,10.66 1.48,4.18 2.63,7.85 3.45,11.02 0.82,3.16 1.23,6.23 1.23,9.2 0,3.59 -0.7,6.91 -2.11,9.96 -1.4,3.04 -3.45,5.5 -6.14,7.38 -2.7,1.87 -5.88,2.81 -9.56,2.81 -5.47,0 -9.8,-1.95 -13,-5.86 -3.21,-3.9 -4.81,-8.67 -4.81,-14.29 0.08,-3.13 0.47,-6.06 1.17,-8.79 0.7,-2.74 1.84,-6.37 3.4,-10.9 1.56,-4.53 2.71,-8.26 3.45,-11.19 0.75,-2.93 1.12,-5.92 1.12,-8.97 0,-0.78 -0.31,-1.17 -0.94,-1.17 h -15.94" />
        <g
           transform="scale(10)"
           id="g4815">
          <text
             id="text4819"
             style="font-variant:normal;font-weight:normal;font-size:9px;font-family:Helvetica;-inkscape-font-specification:Helvetica;writing-mode:lr-tb;fill:#000000;fill-opacity:1;fill-rule:nonzero;stroke:none"
             transform="matrix(1,0,0,-1,747,132)">
            <tspan
               id="tspan4817"
               sodipodi:role="line"
               y="0"
               x="0 2.5020001 5.0040002 10.008 15.012 20.016001 24.516001 31.014 35.514 38.015999 41.013 43.514999 48.519001 50.516998 52.514999">, 400kHz (fail)</tspan>
          </text>
        </g>
        <path
           inkscape:connector-curvature="0"
           id="path4821"
           style="fill:none;stroke:#000000;stroke-width:5.00250006;stroke-linecap:butt;stroke-linejoin:round;stroke-miterlimit:10;stroke-dasharray:none;stroke-opacity:1"
           d="m 6930,1356.47 h 300" />
        <g
           transform="scale(10)"
           id="g4823">
          <text
             id="text4827"
             style="font-variant:normal;font-weight:normal;font-size:9px;font-family:Helvetica;-inkscape-font-specification:Helvetica;writing-mode:lr-tb;fill:#000000;fill-opacity:1;fill-rule:nonzero;stroke:none"
             transform="matrix(1,0,0,-1,725.25,119.25)">
            <tspan
               id="tspan4825"
               sodipodi:role="line"
               y="0"
               x="0 5.0040002 10.008">20k</tspan>
          </text>
        </g>
        <path
           inkscape:connector-curvature="0"
           id="path4829"
           style="fill:#000000;fill-opacity:1;fill-rule:nonzero;stroke:none"
           d="m 7409.41,1192.5 -2.93,15 h 2.58 c 0.32,-1.8 0.61,-3.36 0.88,-4.69 0.27,-1.33 0.63,-2.26 1.06,-2.81 0.43,-0.55 1.11,-0.9 2.05,-1.06 0.93,-0.15 2.5,-0.23 4.68,-0.23 h 5.52 c -0.95,3.36 -3.15,7.77 -6.63,13.24 -3.47,5.48 -5.85,9.46 -7.14,11.96 -1.3,2.5 -1.94,5.7 -1.94,9.61 0,4.53 1.35,8.49 4.04,11.89 2.7,3.4 6.17,6.02 10.44,7.86 4.25,1.83 8.57,2.75 12.94,2.75 4.38,0 8.69,-0.92 12.95,-2.75 4.26,-1.84 7.73,-4.48 10.43,-7.92 2.69,-3.44 4.04,-7.38 4.04,-11.83 0,-3.05 -0.56,-5.93 -1.7,-8.62 -1.13,-2.7 -2.55,-5.39 -4.27,-8.08 -1.72,-2.7 -3.58,-5.71 -5.57,-9.03 -1.99,-3.32 -3.38,-6.34 -4.16,-9.08 h 5.51 c 2.19,0 3.77,0.08 4.74,0.23 0.98,0.16 1.66,0.51 2.05,1.06 0.39,0.55 0.73,1.48 1,2.81 0.27,1.33 0.57,2.89 0.88,4.69 h 2.58 l -2.94,-15 h -15.93 c -0.63,0 -0.94,0.39 -0.94,1.17 0,3.05 0.37,6.04 1.12,8.97 0.74,2.93 1.85,6.48 3.34,10.66 1.48,4.18 2.63,7.85 3.45,11.02 0.82,3.16 1.23,6.23 1.23,9.2 0,3.59 -0.7,6.91 -2.11,9.96 -1.4,3.04 -3.45,5.5 -6.14,7.38 -2.7,1.87 -5.88,2.81 -9.56,2.81 -5.47,0 -9.8,-1.95 -13,-5.86 -3.21,-3.9 -4.81,-8.67 -4.81,-14.29 0.08,-3.13 0.47,-6.06 1.17,-8.79 0.7,-2.74 1.84,-6.37 3.4,-10.9 1.56,-4.53 2.71,-8.26 3.45,-11.19 0.75,-2.93 1.12,-5.92 1.12,-8.97 0,-0.78 -0.31,-1.17 -0.94,-1.17 h -15.94" />
        <g
           transform="scale(10)"
           id="g4831">
          <text
             id="text4835"
             style="font-variant:normal;font-weight:normal;font-size:9px;font-family:Helvetica;-inkscape-font-specification:Helvetica;writing-mode:lr-tb;fill:#000000;fill-opacity:1;fill-rule:nonzero;stroke:none"
             transform="matrix(1,0,0,-1,747,119.25)">
            <tspan
               id="tspan4833"
               sodipodi:role="line"
               y="0"
               x="0 2.5020001 5.0040002 10.008 15.012 20.016001 24.516001 31.014">, 100kHz</tspan>
          </text>
        </g>
        <path
           inkscape:connector-curvature="0"
           id="path4837"
           style="fill:none;stroke:#ff00ff;stroke-width:5.00250006;stroke-linecap:butt;stroke-linejoin:round;stroke-miterlimit:10;stroke-dasharray:none;stroke-opacity:1"
           d="m 6930,1231.03 h 300" />
        <path
           inkscape:connector-curvature="0"
           id="path4839"
           style="fill:none;stroke:#262626;stroke-width:5.00250006;stroke-linecap:butt;stroke-linejoin:miter;stroke-miterlimit:10;stroke-dasharray:none;stroke-opacity:1"
           d="m 6900,1155 h 1162.5 v 277.5 H 6900 Z" />
      </g>
    </g>
  </g>
</svg>
